<svg width="1920" height="960" viewBox="0 0 1920 960" fill="none" xmlns="http://www.w3.org/2000/svg">
<g id="anim-decor" clip-path="url(#clip0_7016_104)">
<g id="group">
<path id="anim-decor-bg-1" d="M562 0H1358.67L1920 562.667V960H0V562.667L562 0Z" fill="#1B1464"/>
<path id="anim-decor-bg-2" d="M960 232L769.333 422V498.667L730.667 461.333L462 730.667L500 769.333H424L234 960L424 1150.67H500L462 1189.33L730.667 1458.67L769.333 1421.33V1498L960 1688L1151.33 1496.67V1421.33L1189.33 1458.67L1458.67 1189.33L1421.33 1150.67H1497.33L1688 960L1497.33 769.333H1421.33L1458.67 730.667L1189.33 461.333L1151.33 498.667V423.333L960 232Z" fill="#0000FF"/>
<path id="anim-decor-figure-top-left" d="M416.09 146.064L597.333 328.667C659.018 294.149 695.956 277.697 769.333 258.667V0L562.666 84.6677L561.999 0.00504214L416.09 146.064Z" fill="#FF6D38"/>
<path id="anim-decor-figure-top-right" d="M1504.25 145.939L1322.67 328.667C1260.98 294.149 1224.04 277.697 1150.67 258.667V0L1357.33 84.6677L1358.67 0L1504.25 145.939Z" fill="#FF6D38"/>
<path id="anim-decor-figure-bottom-left" d="M146.341 416.232L328 598.667L257.333 769.333H0L85.3333 562.667H0L146.341 416.232Z" fill="#FF6D38"/>
<path id="anim-decor-figure-bottom-right" d="M1773.85 416.181L1592 598.667L1662.67 769.334H1920L1834.67 562.667H1920L1773.85 416.181Z" fill="#FF6D38"/>
<path id="anim-decor-triangle-top-left" d="M262.667 300V262.667H300L262.667 300Z" fill="#0000FF"/>
<path id="anim-decor-triangle-top-right" d="M1657.33 300V262.667H1620L1657.33 300Z" fill="#0000FF"/>
<path id="anim-decor-circle-center" d="M960.667 461.333C1235.7 461.333 1458.67 684.296 1458.67 959.333C1458.67 959.556 1458.66 959.778 1458.66 960C1458.66 960.222 1458.67 960.444 1458.67 960.667C1458.67 1235.7 1235.7 1458.67 960.667 1458.67C685.629 1458.67 462.667 1235.7 462.667 960.667C462.667 960.444 462.669 960.222 462.67 960C462.669 959.778 462.667 959.556 462.667 959.333C462.667 684.296 685.629 461.333 960.667 461.333Z" fill="#12A720"/>
<path id="anim-decor-rhomb-center" d="M609.333 960.667V960V884.667L884 608.667H1037.33L1312 884.667V960V960.667V1036L1037.33 1312H884L609.333 1036V960.667Z" fill="#D5E1E1"/>
<path id="anim-decor-square-center" d="M844 844H1076V961.333V1078.67H844V961.333V844Z" fill="#FFFF00"/>
</g>
</g>
<defs>
<clipPath id="clip0_7016_104">
<rect width="1920" height="960" fill="white"/>
</clipPath>
</defs>
</svg>
