<svg width="193" height="192" viewBox="0 0 193 192" fill="none" xmlns="http://www.w3.org/2000/svg">
<circle cx="96.603" cy="96" r="96" fill="black"/>
<path d="M45.2661 147.337C45.2661 133.161 56.7585 121.668 70.9349 121.668H96.6024V147.337C96.6024 161.513 85.1113 173.006 70.9349 173.006C56.7585 173.006 45.2661 161.513 45.2661 147.337Z" fill="#24CB71"/>
<path d="M96.6023 18.9946V70.3309H122.271C136.447 70.3309 147.94 58.8398 147.94 44.6634C147.94 30.487 136.447 18.9946 122.271 18.9946H96.6023Z" fill="#FF7237"/>
<path d="M122.058 121.668C136.235 121.668 147.727 110.176 147.727 95.9996C147.727 81.8232 136.235 70.3311 122.058 70.3311C107.882 70.3311 96.3896 81.8232 96.3896 95.9996C96.3896 110.176 107.882 121.668 122.058 121.668Z" fill="#00B6FF"/>
<path d="M45.2661 44.6634C45.2661 58.8398 56.7585 70.3322 70.9349 70.3322H96.6024V18.9946H70.9349C56.7585 18.9946 45.2661 30.487 45.2661 44.6634Z" fill="#FF3737"/>
<path d="M45.2661 95.9996C45.2661 110.176 56.7585 121.668 70.9349 121.668H96.6024V70.332H70.9349C56.7585 70.332 45.2661 81.8232 45.2661 95.9996Z" fill="#874FFF"/>
</svg>
