<svg width="206" height="38" viewBox="0 0 206 38" fill="none" xmlns="http://www.w3.org/2000/svg">
<path d="M114.612 11.3373C113.694 10.1168 113.2 8.63418 113.203 7.11164C113.204 6.17596 113.391 5.24967 113.753 4.38572C114.115 3.52178 114.646 2.73712 115.314 2.07664C115.982 1.41616 116.775 0.892806 117.647 0.536495C118.519 0.18018 119.454 -0.00209231 120.397 8.16631e-05H137.03C138.492 -0.00686716 139.92 0.42996 141.124 1.25188C142.329 2.07381 143.25 3.24145 143.765 4.59806C144.281 5.95466 144.366 7.43525 144.008 8.84096C143.65 10.2467 142.868 11.5102 141.765 12.4619C141.684 12.5391 141.62 12.6315 141.577 12.7338C141.533 12.8361 141.51 12.9461 141.51 13.0573C141.51 13.1685 141.533 13.2784 141.577 13.3807C141.62 13.4831 141.684 13.5756 141.765 13.6527C142.869 14.603 143.653 15.8661 144.011 17.2718C144.369 18.6775 144.286 20.1584 143.77 21.5151C143.253 22.8718 142.331 24.0392 141.126 24.86C139.922 25.6809 138.492 26.1157 137.03 26.1063H130.467C130.105 26.1051 129.748 26.1748 129.414 26.3109C129.081 26.4471 128.778 26.6475 128.522 26.9001C128.266 27.1529 128.064 27.4531 127.925 27.7838C127.787 28.1143 127.716 28.4688 127.716 28.8268V30.8197C127.709 31.8861 127.464 32.9379 126.999 33.8993C126.533 34.8609 125.859 35.7083 125.026 36.381C124.191 37.0536 123.217 37.5349 122.173 37.79C121.129 38.0452 120.042 38.068 118.988 37.8569C117.605 37.5036 116.344 36.7825 115.344 35.7711C114.343 34.7597 113.641 33.4966 113.311 32.1179C113.115 31.0267 113.181 29.9053 113.503 28.8439C113.824 27.7825 114.392 26.8108 115.162 26.007C115.442 25.72 115.599 25.3359 115.599 24.9361C115.599 24.5363 115.442 24.1522 115.162 23.8652C114.008 22.6545 113.321 21.0795 113.22 19.4163C113.119 17.7531 113.612 16.108 114.612 14.7691C114.984 14.2734 115.186 13.6715 115.186 13.0532C115.186 12.4347 114.984 11.8328 114.612 11.3373Z" fill="currentColor"/>
<path fill-rule="evenodd" clip-rule="evenodd" d="M48.5267 38V30.3582L43.0722 35.7617L36.3558 29.1082L41.8104 23.7047H34.0966V14.2952H41.8104L36.3558 8.89172L43.0722 2.2382L48.5267 7.6417V0H58.0251V7.64165L63.4795 2.23819L70.1959 8.89172L64.7414 14.2952H72.4552V23.7047H64.7414L70.1959 29.1082L63.4795 35.7617L58.0251 30.3582V38H48.5267ZM53.3041 12.9481L59.4412 19.0279L53.3041 25.1077L47.1669 19.0279L53.3041 12.9481Z" fill="currentColor"/>
<path d="M34.9882 6.18277L26.398 0H13.9346L3.85142 7.25734L0 18.9999L3.85142 30.7425L13.9346 37.9999H26.398L35.0064 31.8041L26.1133 23.4938L22.4857 26.0885H17.8258L14.0557 23.392L12.6157 19.0289L14.0557 14.6659L17.8258 11.9693H22.4857L26.0601 14.5259L34.9882 6.18277Z" fill="currentColor"/>
<path d="M102.627 0.619259V14.3239H109.564V37.2117H96.2631V16.6641C96.2631 14.7848 94.7254 13.2614 92.8283 13.2614C90.9313 13.2614 89.3934 14.7848 89.3934 16.6641V37.2117H76.0926V14.2992H83.0246V0.619258L102.627 0.619259Z" fill="currentColor"/>
<path d="M155.65 17.0014C160.39 17.0014 164.232 13.1955 164.232 8.50072C164.232 3.8059 160.39 0 155.65 0C150.912 -9.38269e-07 147.07 3.8059 147.07 8.50072C147.07 13.1955 150.912 17.0014 155.65 17.0014Z" fill="currentColor"/>
<path d="M164.077 30.9916C165.37 29.7113 165.37 27.6355 164.077 26.3552L157.973 20.307C156.68 19.0266 154.585 19.0266 153.292 20.307L147.187 26.3551C145.894 27.6355 145.894 29.7113 147.187 30.9916L153.292 37.0397C154.585 38.3201 156.68 38.3201 157.973 37.0397L164.077 30.9916Z" fill="currentColor"/>
<path fill-rule="evenodd" clip-rule="evenodd" d="M168.21 0.619258H197.362V20.8858L188.668 29.4428H168.21V0.619258ZM187.919 15.0542C187.919 17.8653 185.618 20.144 182.781 20.144C179.944 20.144 177.643 17.8653 177.643 15.0542C177.643 12.2432 179.944 9.96447 182.781 9.96447C185.618 9.96447 187.919 12.2432 187.919 15.0542Z" fill="currentColor"/>
<path d="M188.668 29.4428V38H206V20.8859L197.362 20.8858L197.362 29.4429L188.668 29.4428Z" fill="currentColor"/>
</svg>
