<svg width="120" height="44" viewBox="0 0 120 44" fill="none" xmlns="http://www.w3.org/2000/svg">
<path d="M0 0.982077V34.5397L4.32351 34.553V18.5725H14.7478V14.3485H4.32351V5.20401H17.8997V0.97998L0 0.982077Z" fill="currentColor"/>
<path d="M25.6817 7.79411C27.2389 7.79411 28.5014 6.53334 28.5014 4.97809C28.5014 3.42285 27.2389 2.16206 25.6817 2.16206C24.1244 2.16206 22.862 3.42285 22.862 4.97809C22.862 6.53334 24.1244 7.79411 25.6817 7.79411Z" fill="currentColor"/>
<path d="M23.4823 12.0182V34.5463H27.8058V12.0182H23.4823Z" fill="currentColor"/>
<path fill-rule="evenodd" clip-rule="evenodd" d="M43.8417 11.3611C38.1004 11.3611 34.0937 16.2105 34.0937 21.9681C34.0937 27.7257 38.1004 32.5751 43.8417 32.5751C46.4701 32.5751 48.6364 31.5588 50.2129 29.9043V32.9037C50.2129 36.6362 47.2771 39.756 43.4457 39.756C42.0685 39.756 40.7001 39.2227 39.61 38.4724L37.4437 42.2195C39.1738 43.3335 41.2342 43.98 43.4457 43.98C49.5709 43.98 54.5364 39.021 54.5364 32.9037V12.0182H50.2129V14.0319C48.6364 12.3774 46.4701 11.3611 43.8417 11.3611ZM38.4172 21.9681C38.4172 18.3942 41.1545 15.5851 44.3117 15.5851C47.4689 15.5851 50.2062 18.3942 50.2062 21.9681C50.2062 25.542 47.4689 28.3511 44.3117 28.3511C41.1545 28.3511 38.4172 25.542 38.4172 21.9681Z" fill="currentColor"/>
<path d="M70.1151 15.5851C67.5586 15.5851 65.4862 17.7488 65.4862 20.302V34.5463H61.1627V12.0182H65.4862V14.0819C66.753 12.4464 68.6194 11.3611 71.055 11.3611C74.0845 11.3611 76.4097 12.8639 77.7564 15.1637C79.2538 12.9423 81.6966 11.3611 84.6365 11.3611C89.5574 11.3611 92.6201 15.326 92.6491 20.2316C92.6492 20.2464 92.6492 20.2612 92.6491 20.276V20.2777C92.6491 20.2855 92.6491 20.2941 92.6491 20.302V34.5463H88.3256V20.302C88.3256 17.7488 86.2531 15.5851 83.6966 15.5851C81.1401 15.5851 79.0676 17.7488 79.0676 20.302V34.5463H74.7441V20.302C74.7441 17.7488 72.6717 15.5851 70.1151 15.5851Z" fill="currentColor"/>
<path fill-rule="evenodd" clip-rule="evenodd" d="M115.676 14.5719C113.753 12.5884 111.119 11.3611 108.063 11.3611C101.631 11.3611 97.0666 16.7998 97.0666 23.2822C97.0666 29.7646 101.631 35.2034 108.063 35.2034C111.119 35.2034 113.753 33.9761 115.676 31.9925V34.5463H120V12.0182H115.676V14.5719ZM101.39 23.2822C101.39 18.9816 104.687 15.5851 108.533 15.5851C112.379 15.5851 115.676 18.9816 115.676 23.2822C115.676 27.5829 112.379 30.9794 108.533 30.9794C104.687 30.9794 101.39 27.5829 101.39 23.2822Z" fill="currentColor"/>
</svg>
