<?xml version="1.0" encoding="utf-8"?><svg viewBox="0 0 206 44" xmlns="http://www.w3.org/2000/svg" xmlns:xlink="http://www.w3.org/1999/xlink"><style>:root>svg{display:none}:root>svg:target{display:block}</style><svg fill="none" viewBox="0 0 13 13" id="asterisk" xmlns="http://www.w3.org/2000/svg"><path d="M7.862.106H5.138v2.736L3.204.907 1.278 2.833l1.934 1.935H.477v2.724h2.735L1.278 9.426l1.926 1.926 1.934-1.934v2.736h2.724V9.418l1.935 1.934 1.926-1.926-1.935-1.934h2.736V4.768H9.788l1.935-1.935L9.797.907 7.862 2.842V.106z" fill="currentColor"/></svg><svg fill="none" viewBox="0 0 12 13" id="hourglass" xmlns="http://www.w3.org/2000/svg"><path d="M0 .78a6 6 0 1012 0H0z" fill="currentColor"/><path d="M12 12.78a6 6 0 10-12 0h12z" fill="currentColor"/></svg><svg fill="none" viewBox="0 0 206 38" id="logo" xmlns="http://www.w3.org/2000/svg"><path d="M114.612 11.337a7.005 7.005 0 01-1.409-4.225 7.073 7.073 0 012.111-5.035 7.182 7.182 0 012.333-1.54 7.229 7.229 0 012.75-.537h16.633a7.2 7.2 0 014.094 1.252 7.103 7.103 0 012.641 3.346 7.042 7.042 0 01.243 4.243 7.095 7.095 0 01-2.243 3.62.819.819 0 000 1.19 7.083 7.083 0 012.246 3.62 7.043 7.043 0 01-.241 4.244 7.112 7.112 0 01-2.644 3.345 7.19 7.19 0 01-4.096 1.246h-6.563a2.764 2.764 0 00-1.945.794 2.707 2.707 0 00-.806 1.927v1.993a7.18 7.18 0 01-.717 3.08 7.261 7.261 0 01-4.826 3.89 7.34 7.34 0 01-3.185.067 7.86 7.86 0 01-3.644-2.086 7.76 7.76 0 01-2.033-3.653 7.052 7.052 0 011.851-6.11 1.534 1.534 0 000-2.143 7.05 7.05 0 01-.55-9.096 2.86 2.86 0 00.574-1.716c0-.618-.202-1.22-.574-1.716z" fill="currentColor"/><path fill-rule="evenodd" clip-rule="evenodd" d="M48.527 38v-7.642l-5.455 5.404-6.716-6.654 5.454-5.403h-7.713v-9.41h7.713l-5.454-5.403 6.716-6.654 5.455 5.404V0h9.498v7.642l5.455-5.404 6.716 6.654-5.455 5.403h7.714v9.41h-7.714l5.455 5.403-6.716 6.654-5.455-5.404V38h-9.498zm4.777-25.052l6.137 6.08-6.137 6.08-6.137-6.08 6.137-6.08z" fill="currentColor"/><path d="M34.988 6.183L26.398 0H13.935L3.85 7.257 0 19l3.851 11.742L13.935 38h12.463l8.608-6.196-8.893-8.31-3.627 2.595h-4.66l-3.77-2.697-1.44-4.363 1.44-4.363 3.77-2.697h4.66l3.574 2.557 8.928-8.343zM102.627.62v13.704h6.937v22.888h-13.3V16.664c0-1.88-1.539-3.403-3.436-3.403s-3.435 1.524-3.435 3.403v20.548h-13.3V14.299h6.932V.62h19.602zM155.65 17.001c4.74 0 8.582-3.806 8.582-8.5 0-4.695-3.842-8.501-8.582-8.501-4.738 0-8.58 3.806-8.58 8.5 0 4.695 3.842 8.501 8.58 8.501zM164.077 30.992a3.256 3.256 0 000-4.637l-6.104-6.048a3.332 3.332 0 00-4.681 0l-6.105 6.048a3.256 3.256 0 000 4.637l6.105 6.048a3.332 3.332 0 004.681 0l6.104-6.048z" fill="currentColor"/><path fill-rule="evenodd" clip-rule="evenodd" d="M168.21.62h29.152v20.266l-8.694 8.557H168.21V.619zm19.709 14.434c0 2.811-2.301 5.09-5.138 5.09-2.837 0-5.138-2.279-5.138-5.09 0-2.81 2.301-5.09 5.138-5.09 2.837 0 5.138 2.28 5.138 5.09z" fill="currentColor"/><path d="M188.668 29.443V38H206V20.886h-8.638v8.557h-8.694z" fill="currentColor"/></svg><svg fill="none" viewBox="0 0 120 44" id="logo-figma" xmlns="http://www.w3.org/2000/svg"><path d="M0 .982V34.54l4.324.013v-15.98h10.424v-4.225H4.324V5.204H17.9V.98L0 .982zM25.682 7.794c1.557 0 2.82-1.26 2.82-2.816a2.818 2.818 0 00-2.82-2.816 2.818 2.818 0 00-2.82 2.816 2.818 2.818 0 002.82 2.816zM23.482 12.018v22.528h4.324V12.018h-4.324z" fill="currentColor"/><path fill-rule="evenodd" clip-rule="evenodd" d="M43.842 11.361c-5.742 0-9.748 4.85-9.748 10.607 0 5.758 4.006 10.607 9.748 10.607 2.628 0 4.794-1.016 6.37-2.67v2.999c0 3.732-2.935 6.852-6.766 6.852-1.377 0-2.746-.533-3.836-1.284l-2.166 3.747a11.05 11.05 0 006.002 1.761c6.125 0 11.09-4.959 11.09-11.076V12.018h-4.323v2.014c-1.577-1.655-3.743-2.67-6.371-2.67zm-5.425 10.607c0-3.574 2.737-6.383 5.895-6.383 3.157 0 5.894 2.81 5.894 6.383 0 3.574-2.737 6.383-5.894 6.383s-5.895-2.809-5.895-6.383z" fill="currentColor"/><path d="M70.115 15.585c-2.556 0-4.629 2.164-4.629 4.717v14.244h-4.323V12.018h4.323v2.064c1.267-1.636 3.133-2.72 5.569-2.72 3.03 0 5.355 1.502 6.701 3.802 1.498-2.222 3.94-3.803 6.88-3.803 4.921 0 7.984 3.965 8.013 8.87v14.315h-4.323V20.302c0-2.553-2.073-4.717-4.63-4.717-2.556 0-4.628 2.164-4.628 4.717v14.244h-4.324V20.302c0-2.553-2.072-4.717-4.629-4.717z" fill="currentColor"/><path fill-rule="evenodd" clip-rule="evenodd" d="M115.676 14.572c-1.923-1.984-4.557-3.21-7.613-3.21-6.432 0-10.996 5.438-10.996 11.92 0 6.483 4.564 11.921 10.996 11.921 3.056 0 5.69-1.227 7.613-3.21v2.553H120V12.018h-4.324v2.554zm-14.286 8.71c0-4.3 3.297-7.697 7.143-7.697 3.846 0 7.143 3.397 7.143 7.697 0 4.3-3.297 7.697-7.143 7.697-3.846 0-7.143-3.396-7.143-7.697z" fill="currentColor"/></svg><svg fill="none" viewBox="0 0 12 12" id="rhombus" xmlns="http://www.w3.org/2000/svg"><path d="M6 0l6 6-6 6-6-6 6-6z" fill="currentColor"/></svg><svg fill="none" viewBox="0 0 12 13" id="stack" xmlns="http://www.w3.org/2000/svg"><path d="M9 .8H3a3 3 0 100 6h6a3 3 0 000-6zM9 6.8H3a3 3 0 100 6h6a3 3 0 100-6z" fill="currentColor"/></svg><svg fill="none" viewBox="0 0 13 13" id="world" xmlns="http://www.w3.org/2000/svg"><path d="M6.55.58a5.5 5.5 0 010 11m0-11a5.5 5.5 0 100 11m0-11c-.116 0-.287.061-.502.303-.214.242-.43.62-.62 1.13C5.045 3.029 4.8 4.467 4.8 6.08s.246 3.05.627 4.067c.191.51.407.888.621 1.13.215.242.386.303.502.303m0-11c.116 0 .287.061.502.303.214.242.43.62.62 1.13.382 1.016.628 2.454.628 4.067s-.246 3.05-.627 4.067c-.191.51-.407.888-.621 1.13-.215.242-.386.303-.502.303M1.3 6.08h10.5" stroke="currentColor"/></svg></svg>