<?xml version="1.0" encoding="utf-8"?><svg viewBox="0 0 134 61" xmlns="http://www.w3.org/2000/svg" xmlns:xlink="http://www.w3.org/1999/xlink"><style>:root>svg{display:none}:root>svg:target{display:block}</style><svg fill="none" viewBox="0 0 134 60" id="sponsors-logo-1" xmlns="http://www.w3.org/2000/svg"><path d="M11 20.2a2.2 2.2 0 012.2-2.2h8.6a2.2 2.2 0 012.2 2.2v1.7a1.1 1.1 0 01-1.1 1.1H12.1a1.1 1.1 0 01-1.1-1.1v-1.7zM11 27.1a1.1 1.1 0 011.1-1.1h20.7a2.2 2.2 0 012.2 2.2v5.7a1.1 1.1 0 01-1.1 1.1H13.2a2.2 2.2 0 01-2.2-2.2v-5.7zM22 39.1a1.1 1.1 0 011.1-1.1h10.8a1.1 1.1 0 011.1 1.1v.7a2.2 2.2 0 01-2.2 2.2h-8.6a2.2 2.2 0 01-2.2-2.2v-.7zM48.596 32.741h2.311l4.293 7.017h5.256l-4.76-7.512c2.641-.909 4.182-2.945 4.182-5.89 0-4.127-2.89-6.356-7.54-6.356H44v19.758h4.596v-7.017zm0-3.742V23.88h3.494c2.174 0 3.275.936 3.275 2.56 0 1.595-1.1 2.558-3.275 2.558h-3.494zM68.363 40.06c2.89 0 5.531-1.458 6.605-4.237L71.28 34.64c-.413 1.266-1.486 1.926-2.862 1.926-1.678 0-2.862-1.128-3.164-3.11h9.824v-1.155c0-4.1-2.395-7.348-6.797-7.348-4.183 0-7.265 3.247-7.265 7.54 0 4.513 2.972 7.568 7.347 7.568zm-.138-11.694c1.624 0 2.477 1.1 2.505 2.394H65.39c.44-1.596 1.486-2.394 2.834-2.394zM77.573 35.878c0 2.972 1.569 4.018 4.706 4.018 1.046 0 1.871-.083 2.642-.193v-3.605a9.473 9.473 0 01-1.266.083c-1.101 0-1.734-.22-1.734-1.431v-5.862h2.834v-3.632h-2.834v-4.018h-4.348v4.018H75.73v3.632h1.844v6.99zM100.672 32.52c0-4.512-3-7.567-7.265-7.567-4.293 0-7.265 3.055-7.265 7.568s2.972 7.54 7.265 7.54c4.266 0 7.265-3.027 7.265-7.54zm-10.154 0c0-2.53 1.128-3.962 2.89-3.962 1.76 0 2.888 1.431 2.888 3.963s-1.128 3.962-2.889 3.962-2.89-1.43-2.89-3.962zM116.527 32.52c0-4.512-2.999-7.567-7.265-7.567-4.293 0-7.265 3.055-7.265 7.568s2.972 7.54 7.265 7.54c4.266 0 7.265-3.027 7.265-7.54zm-10.154 0c0-2.53 1.128-3.962 2.889-3.962 1.762 0 2.89 1.431 2.89 3.963s-1.128 3.962-2.89 3.962c-1.761 0-2.889-1.43-2.889-3.962zM123 20h-4.403v19.758H123V20z" fill="currentColor"/></svg><svg fill="none" viewBox="0 0 134 60" id="sponsors-logo-2" xmlns="http://www.w3.org/2000/svg"><path fill-rule="evenodd" clip-rule="evenodd" d="M18.402 23.479L28.955 18l10.666 5.479-10.666 5.492-10.553-5.492zm63.351 2.66v-.132c0-1.803 1.06-2.381 2.847-2.253v-3.297c-4.28-.26-6.307 1.883-6.307 5.55v.132h-1.936v3.297h1.936v9.98h3.46v-9.98h3.982v9.98h3.46v-9.98h2.847v-3.297h-2.847v-.132c0-1.803 1.042-2.381 2.847-2.253v-3.297c-4.28-.26-6.307 1.883-6.307 5.55v.132h-3.982zm-24.188 3.61c1.098-.873 1.767-2.12 1.767-3.723 0-3.107-2.53-5.232-5.712-5.232h-7.386v18.583h7.982c3.256 0 5.86-2.196 5.86-5.378-.036-1.921-1.004-3.392-2.51-4.25zm-3.926-5.511c1.19 0 2.01.877 2.01 2.049 0 1.175-.857 2.048-2.01 2.048h-3.702v-4.098h3.702zm.558 11.734h-4.26v-4.379h4.26c1.266 0 2.177.93 2.177 2.177 0 1.267-.911 2.202-2.177 2.202zm16.671-9.852v7.167c0 2.31-1.265 3.297-2.958 3.297-1.563 0-2.66-.93-2.66-2.738V26.12h-3.462v8.154c0 3.538 2.215 5.497 5.08 5.497 1.805 0 3.2-.674 3.982-1.864v1.49h3.46V26.12h-3.442zm35.519 8.044h-10.12c.501 1.75 1.952 2.495 3.757 2.495 1.358 0 2.438-.56 3.015-1.323l2.79 1.584c-1.246 1.807-3.256 2.85-5.842 2.85-4.502 0-7.35-3.054-7.35-7.019 0-3.97 2.866-7.025 7.09-7.025 3.963 0 6.791 3.112 6.791 7.025 0 .517-.056.968-.131 1.413zm-6.66-5.326c-1.86 0-3.127.987-3.517 2.68h6.847c-.428-1.916-1.879-2.68-3.33-2.68zm11.796-.427V26.12h-3.461v13.276h3.461v-6.35c0-2.795 2.27-3.591 4.075-3.369V25.86c-1.693 0-3.386.744-4.075 2.55zm-82.568 9.956l-7.2-3.913-3.353 1.816L28.955 42l10.666-5.73-3.391-1.816-7.275 3.913zm-7.2-10.084l7.2 3.548 7.275-3.548 3.391 1.656-10.666 5.203-10.553-5.203 3.354-1.656z" fill="currentColor"/></svg><svg fill="none" viewBox="0 0 134 60" id="sponsors-logo-3" xmlns="http://www.w3.org/2000/svg"><path d="M39.843 22.51h5.716c3.645 0 6.656 2.108 6.656 6.923v1.012c0 4.851-2.816 7.033-6.546 7.033h-5.826V22.51zm3.193 2.718v9.52h2.45c2.073 0 3.462-1.353 3.462-4.364v-.792c0-3.011-1.463-4.364-3.571-4.364h-2.34zm10.873.146h2.56l.414 2.816c.488-1.914 1.73-2.938 3.986-2.938h.792v3.23h-1.316c-2.597 0-3.23.902-3.23 3.462v5.57h-3.157v-12.14h-.05zm8.386 6.314v-.341c0-4.06 2.596-6.277 6.13-6.277 3.609 0 6.132 2.218 6.132 6.277v.341c0 3.986-2.45 6.131-6.131 6.131-3.913-.037-6.131-2.133-6.131-6.13zm9.032-.037v-.304c0-2.255-1.134-3.608-2.938-3.608-1.767 0-2.937 1.243-2.937 3.608v.304c0 2.182 1.133 3.426 2.937 3.426 1.804-.037 2.938-1.244 2.938-3.425zm4.888-6.277h2.632l.305 2.292c.634-1.536 1.987-2.596 3.986-2.596 3.084 0 5.12 2.218 5.12 6.325v.342c0 3.986-2.256 6.094-5.12 6.094-1.914 0-3.23-.865-3.876-2.255v6.131h-3.084l.037-16.333zm8.837 6.277v-.268c0-2.413-1.244-3.608-2.901-3.608-1.768 0-2.938 1.353-2.938 3.608v.232c0 2.145 1.134 3.498 2.901 3.498 1.816-.036 2.938-1.194 2.938-3.462zm7.874 3.62l-.269 2.219h-2.705V21.315h3.083v6.204c.683-1.584 2.036-2.45 3.95-2.45 2.9.037 5.046 2.036 5.046 6.058v.378c0 4.023-2.036 6.326-5.12 6.326-2.035-.049-3.352-.987-3.985-2.56zm5.863-3.766v-.304c0-2.219-1.207-3.462-2.901-3.462-1.731 0-2.938 1.39-2.938 3.498v.268c0 2.255 1.17 3.572 2.901 3.572 1.853 0 2.938-1.158 2.938-3.572zm4.595.183v-.341c0-4.06 2.596-6.277 6.131-6.277 3.608 0 6.131 2.218 6.131 6.277v.341c0 3.986-2.487 6.131-6.131 6.131-3.913-.037-6.131-2.133-6.131-6.13zm9.056-.037v-.304c0-2.255-1.133-3.608-2.937-3.608-1.768 0-2.938 1.243-2.938 3.608v.304c0 2.182 1.134 3.426 2.938 3.426 1.816-.037 2.937-1.244 2.937-3.425zm7.338-.45l-4.254-5.827h3.644l2.45 3.645 2.487-3.645h3.608l-4.315 5.79 4.546 6.326h-3.571l-2.779-4.022-2.706 4.022h-3.73l4.62-6.29zM20.194 22.51l-7.07 4.51 7.07 4.51-7.07 4.51-7.069-4.535 7.07-4.51-7.07-4.485 7.07-4.51 7.07 4.51zm-7.106 14.98l7.07-4.51 7.07 4.51-7.07 4.51-7.07-4.51zm7.106-5.985l7.07-4.51-7.07-4.485L27.227 18l7.07 4.51-7.07 4.51 7.07 4.51-7.07 4.51-7.033-4.535z" fill="currentColor"/></svg><svg fill="none" viewBox="0 0 134 60" id="sponsors-logo-4" xmlns="http://www.w3.org/2000/svg"><path d="M42.525 24.184h4.971c2.753 0 4.183 1.129 4.183 3.249v.105a2.598 2.598 0 01-2.047 2.705 2.778 2.778 0 012.526 2.98v.074c0 2.314-1.519 3.533-4.435 3.533h-5.198V24.184zm4.508 5.19c1.38 0 1.925-.496 1.925-1.625v-.073c0-1.056-.601-1.535-1.941-1.535h-1.698v3.249l1.714-.016zm.244 5.466c1.413 0 2.054-.642 2.054-1.787v-.073c0-1.17-.641-1.763-2.192-1.763h-1.82v3.63l1.958-.007zM52.906 34.255c0-2.16 1.974-2.973 4.808-2.973h1.04v-.365c0-1.097-.333-1.698-1.503-1.698a1.4 1.4 0 00-1.56 1.308h-2.436c.163-2.193 1.893-3.168 4.159-3.168s3.866.918 3.866 3.428v6.026h-2.494V35.7a3.128 3.128 0 01-2.794 1.308c-1.673 0-3.086-.812-3.086-2.753zm5.848-.674v-.813h-.991c-1.486 0-2.347.325-2.347 1.308 0 .674.406 1.12 1.34 1.12 1.129.033 1.998-.592 1.998-1.615zM62.36 33.914h2.388c.106.812.512 1.315 1.625 1.315.99 0 1.453-.373 1.453-1.015 0-.641-.552-.901-1.876-1.088-2.436-.374-3.41-1.08-3.41-2.883s1.77-2.884 3.654-2.884c2.055 0 3.59.748 3.817 2.867h-2.347c-.138-.763-.569-1.112-1.446-1.112s-1.307.39-1.307.95c0 .56.438.812 1.778 1.007 2.315.333 3.59.918 3.59 2.9 0 1.981-1.445 3.037-3.89 3.037-2.445 0-3.94-1.096-4.028-3.094zM70.938 32.306v-.138a4.589 4.589 0 014.751-4.808c2.388 0 4.508 1.396 4.508 4.702v.707h-6.635c.065 1.535.901 2.436 2.29 2.436 1.186 0 1.77-.511 1.933-1.291h2.437c-.301 1.998-1.893 3.11-4.419 3.11-2.834-.016-4.865-1.762-4.865-4.718zm6.766-1.113c-.081-1.397-.796-2.03-2.014-2.03a2.12 2.12 0 00-2.128 2.03h4.142zM80.872 32.306v-.139a4.587 4.587 0 014.767-4.808c2.144 0 4.118.934 4.354 3.59h-2.437a1.706 1.706 0 00-1.876-1.575c-1.324 0-2.21.99-2.21 2.761v.138c0 1.86.813 2.81 2.267 2.81a1.87 1.87 0 001.973-1.787h2.315c-.138 2.193-1.73 3.712-4.418 3.712-2.689 0-4.735-1.681-4.735-4.703zM90.616 34.255c0-2.16 1.973-2.973 4.8-2.973h1.047v-.365c0-1.097-.34-1.698-1.502-1.698a1.4 1.4 0 00-1.576 1.308H90.95c.162-2.193 1.892-3.168 4.15-3.168 2.258 0 3.874.918 3.874 3.428v6.026H96.48V35.7a3.127 3.127 0 01-2.794 1.308c-1.625 0-3.07-.812-3.07-2.753zm5.847-.674v-.813h-.974c-1.487 0-2.356.325-2.356 1.308 0 .674.415 1.12 1.349 1.12 1.145.033 2.014-.592 2.014-1.615h-.033zM100.777 27.538h2.559v1.413a3.158 3.158 0 012.826-1.624 2.55 2.55 0 012.583 1.624 3.665 3.665 0 013.111-1.624c1.713 0 3.037 1.08 3.037 3.533v5.92h-2.542v-5.603c0-1.186-.528-1.714-1.454-1.714a1.712 1.712 0 00-1.778 1.892v5.458h-2.551v-5.636c0-1.186-.544-1.714-1.445-1.714a1.713 1.713 0 00-1.787 1.892v5.458h-2.559v-9.275zM116.647 27.538h2.566v1.454a3.443 3.443 0 012.949-1.665c2.266 0 4.061 1.681 4.061 4.735v.146c0 3.054-1.73 4.768-4.061 4.768a3.25 3.25 0 01-2.949-1.625v4.614h-2.566V27.538zm6.944 4.548c0-1.876-.918-2.794-2.209-2.794s-2.258.934-2.258 2.794v.138c0 1.852.885 2.754 2.282 2.754s2.185-.943 2.185-2.721v-.17z" fill="currentColor"/><path fill-rule="evenodd" clip-rule="evenodd" d="M23.538 19.77c-7.207 0-10.965 6.104-13.07 12.07a1.385 1.385 0 01-2.612-.92C9.992 24.864 14.356 17 23.538 17c4.8 0 8.236 3.175 10.458 6.99 2.227 3.825 3.415 8.561 3.683 12.385.02.275-.044.55-.182.788-1.286 2.234-3.427 3.69-5.867 4.581-2.435.89-5.255 1.253-8.08 1.254a16.712 16.712 0 01-12.75-5.606 1.385 1.385 0 01-.264-1.401l1.299.481-1.3-.481.004-.008.007-.018.024-.065.091-.234a32.104 32.104 0 011.54-3.32c.49-.905 1.094-1.878 1.773-2.645.62-.698 1.582-1.55 2.814-1.558h.009c.87 0 1.585.399 2.1.782.519.386.99.877 1.367 1.276l.127.134c.351.373.62.658.876.871.028.024.055.046.079.064.083-.085.182-.196.296-.337.406-.504.862-1.212 1.303-1.971a41.703 41.703 0 001.551-2.948l.023-.049.007-.013a1.385 1.385 0 012.508 1.175l-1.144-.536 1.143.536-.003.006-.007.015-.026.057-.1.206a47.269 47.269 0 01-1.558 2.943c-.465.8-1.004 1.651-1.541 2.318-.267.33-.569.66-.896.92-.289.23-.798.57-1.451.57-.864 0-1.544-.483-1.96-.83-.392-.328-.784-.744-1.113-1.094l-.127-.135c-.39-.412-.708-.734-1.008-.957-.262-.195-.396-.227-.435-.232 0 0-.003 0-.005.002-.042.014-.297.104-.756.622-.476.537-.963 1.3-1.413 2.129a27.743 27.743 0 00-1.186 2.498 13.94 13.94 0 0010.09 4.063c2.62 0 5.1-.339 7.141-1.085 1.878-.686 3.311-1.687 4.202-3.014-.302-3.404-1.386-7.495-3.279-10.745-1.98-3.401-4.669-5.614-8.064-5.614zm-2.42 11.697s.006-.005.018-.01c-.012.008-.018.01-.018.01z" fill="currentColor"/></svg><svg fill="none" viewBox="0 0 134 61" id="sponsors-logo-5" xmlns="http://www.w3.org/2000/svg"><path fill-rule="evenodd" clip-rule="evenodd" d="M25.308 20.463c-.774-.168-1.62-.249-2.56-.249H13.5v19.617h9.509c.878 0 1.737-.11 2.563-.33a6.823 6.823 0 002.232-1.018 4.99 4.99 0 001.551-1.776c.38-.72.572-1.577.572-2.572 0-1.227-.292-2.273-.888-3.149-.593-.868-1.487-1.48-2.695-1.826.887-.42 1.55-.96 2.003-1.618.447-.66.671-1.485.671-2.472 0-.913-.15-1.686-.448-2.302a3.798 3.798 0 00-1.28-1.496c-.555-.374-1.212-.646-1.982-.81zM23.64 36.367c-.38.085-.785.123-1.212.123H17.82v-5.403h4.695c.93 0 1.686.214 2.252.644.567.437.851 1.154.851 2.166 0 .515-.084.942-.258 1.271a2.087 2.087 0 01-.702.783 2.868 2.868 0 01-1.018.416zm.451-8.778c-.502.37-1.135.55-1.901.55h-4.37v-4.584h4.04c.382 0 .755.028 1.111.097.363.062.675.178.95.345.28.16.5.39.667.682.16.293.24.67.24 1.126 0 .822-.24 1.422-.737 1.784zM38.607 37.282c-1.095 0-1.939-.287-2.523-.857-.587-.57-.966-1.635-.966-2.757h10.25a10.048 10.048 0 00-.272-3.162c-.257-1.01-.669-1.91-1.248-2.696a6.282 6.282 0 00-2.215-1.883c-.902-.47-1.955-.702-3.157-.702-1.087 0-2.07.194-2.962.578a7.042 7.042 0 00-2.301 1.584c-.644.666-1.133 1.46-1.488 2.38a8.331 8.331 0 00-.524 2.971c0 1.099.17 2.113.51 3.028a6.99 6.99 0 001.442 2.367 6.453 6.453 0 002.294 1.527c.904.357 1.91.538 3.03.538 1.605 0 2.983-.368 4.113-1.105 1.142-.735 1.98-1.955 2.532-3.666h-3.435c-.134.44-.478.864-1.042 1.26-.57.396-1.251.595-2.038.595zm-.248-9.11c.958 0 1.744.276 2.207.79.466.517.806 1.252.9 2.247h-6.348c.018-.277.078-.59.178-.936.1-.355.271-.687.523-1 .253-.31.584-.572.988-.784.413-.214.929-.318 1.552-.318z" fill="currentColor"/><path d="M50.91 20.214v7.396H51c.495-.823 1.122-1.421 1.891-1.792.77-.373 1.52-.559 2.25-.559 1.043 0 1.896.137 2.563.42.668.287 1.195.676 1.582 1.182.38.503.647 1.119.804 1.843.154.722.235 1.52.235 2.398v8.729h-3.92v-8.02c0-1.17-.183-2.05-.547-2.625-.365-.575-1.01-.864-1.944-.864-1.055 0-1.817.32-2.289.95-.482.632-.714 1.67-.714 3.115v7.444h-3.92V20.213h3.92z" fill="currentColor"/><path fill-rule="evenodd" clip-rule="evenodd" d="M64.639 26.246a4.6 4.6 0 00-1.53 1.459c-.41.604-.638 1.365-.694 2.287h3.914c.078-.773.33-1.326.771-1.662.428-.325 1.033-.496 1.796-.496.344 0 .666.026.97.07.298.048.557.138.788.277.224.138.407.33.542.575.136.25.21.585.21 1.006.017.407-.104.712-.356.922-.258.21-.608.374-1.045.484-.443.11-.94.19-1.513.247-.57.056-1.143.13-1.73.22-.579.09-1.163.217-1.739.373a4.8 4.8 0 00-1.538.701c-.454.31-.817.73-1.096 1.252-.287.521-.432 1.187-.432 1.996 0 .734.127 1.367.373 1.902.247.53.586.968 1.027 1.32.439.347.953.604 1.532.77.589.164 1.217.25 1.892.25.88 0 1.738-.129 2.58-.383a5.05 5.05 0 002.196-1.352c.018.24.05.473.096.7.045.231.142.496.258.666l3.986.01c-.189-.29-.39-.734-.467-1.324a15.641 15.641 0 01-.108-1.841v-7.403c0-.864-.195-1.56-.581-2.075a3.907 3.907 0 00-1.478-1.23 6.591 6.591 0 00-2.002-.59c-.74-.102-1.46-.152-2.172-.152-.79 0-1.57.075-2.349.236a6.559 6.559 0 00-2.101.785zm5.36 7.193c.277-.058.545-.126.788-.207a1.69 1.69 0 00.619-.347v1.46c0 .221-.023.515-.074.882-.04.363-.162.724-.362 1.08-.198.358-.514.666-.933.922-.422.256-1.014.383-1.78.383-.31 0-.61-.02-.903-.08a2.183 2.183 0 01-.766-.288 1.456 1.456 0 01-.52-.562 1.885 1.885 0 01-.191-.88c0-.364.066-.672.191-.909.13-.235.298-.432.51-.59.203-.155.451-.278.734-.37.278-.092.571-.164.863-.222.306-.055.622-.098.929-.134.31-.04.609-.084.895-.138z" fill="currentColor"/><path d="M81.174 25.63v1.98h.087c.493-.823 1.131-1.42 1.922-1.792a5.592 5.592 0 012.42-.559c1.047 0 1.907.138 2.57.42.676.287 1.201.676 1.582 1.182.39.504.658 1.119.815 1.843.158.723.236 1.52.236 2.398v8.729h-3.922v-8.02c0-1.17-.184-2.05-.55-2.624-.372-.576-1.011-.945-1.95-.945-1.062 0-1.835.4-2.31 1.03-.479.632-.715 1.67-.715 3.116v7.443h-3.88v-14.2h3.695zM97.927 28.596c.417-.287.934-.425 1.561-.425 1.668 0 2.629.81 2.883 2.43h3.825c-.06-.911-.278-1.708-.658-2.374a5.378 5.378 0 00-1.502-1.67 6.39 6.39 0 00-2.086-1.004 9.192 9.192 0 00-2.435-.328c-1.153 0-2.18.194-3.078.578a6.463 6.463 0 00-2.288 1.612c-.63.685-1.102 1.503-1.421 2.446a9.497 9.497 0 00-.483 3.07c0 1.062.174 2.04.52 2.931a6.954 6.954 0 001.464 2.298c.624.642 1.382 1.14 2.274 1.5.894.357 1.863.538 2.93.538 1.887 0 3.437-.5 4.648-1.485 1.206-.992 1.939-2.43 2.197-4.315h-3.767c-.132.88-.442 1.58-.944 2.103-.505.519-1.224.781-2.163.781-.606 0-1.116-.137-1.536-.414a3.166 3.166 0 01-1.006-1.057 5.041 5.041 0 01-.536-1.446 8.014 8.014 0 01-.166-1.571c0-.533.06-1.069.166-1.611a4.824 4.824 0 01.564-1.486c.265-.45.612-.813 1.037-1.1zM42.272 21.53H34.32v1.936h7.952V21.53z" fill="currentColor"/><path fill-rule="evenodd" clip-rule="evenodd" d="M114.718 37.282c-1.102 0-1.987-.287-2.573-.857-.588-.57-.963-1.635-.963-2.757h10.295a10.206 10.206 0 00-.277-3.162 7.682 7.682 0 00-1.25-2.696 6.24 6.24 0 00-2.217-1.883c-.893-.47-1.95-.702-3.15-.702-1.083 0-2.073.194-2.966.578a7.09 7.09 0 00-2.296 1.584 7.02 7.02 0 00-1.491 2.38 8.332 8.332 0 00-.521 2.971c0 1.099.168 2.113.507 3.028.341.92.821 1.705 1.447 2.367a6.422 6.422 0 002.29 1.527c.897.357 1.908.538 3.03.538 1.611 0 2.983-.368 4.117-1.105 1.136-.735 1.979-1.955 2.528-3.666h-3.436c-.125.44-.476.864-1.043 1.26s-1.246.595-2.031.595zm-.249-9.11c.946 0 1.737.276 2.207.79.465.517.798 1.252.902 2.247h-6.396a4.93 4.93 0 01.174-.936 2.95 2.95 0 01.53-1c.248-.31.618-.572 1.022-.784.42-.214.938-.318 1.561-.318z" fill="currentColor"/></svg><svg fill="none" viewBox="0 0 134 61" id="sponsors-logo-6" xmlns="http://www.w3.org/2000/svg"><path fill-rule="evenodd" clip-rule="evenodd" d="M62.284 26.04c1.238-.235 2.476-.482 3.702-.717-.012 5.485-.012 10.957 0 16.43-1.226-.248-2.464-.508-3.69-.743-.037-.483-.012-.966-.012-1.449-.012-4.494-.012-9.001 0-13.52zm29.95 2.428c-1.04.024-2.104.346-2.91 1.015a4.567 4.567 0 00-1.423 2.105c-.297.879-.359 1.832-.248 2.76.124 1.065.545 2.118 1.288 2.898a4.362 4.362 0 002.204 1.238c1.04.235 2.167.198 3.145-.26.718-.322 1.312-.891 1.733-1.56.47-.755.706-1.634.78-2.526.087-1.003-.025-2.03-.396-2.971-.322-.842-.904-1.598-1.684-2.08-.743-.459-1.622-.657-2.489-.62zm-.544-3.455c1.795-.124 3.677.21 5.225 1.164a7.429 7.429 0 012.191 2.068 8.77 8.77 0 011.139 2.439c.273.928.372 1.906.384 2.872 0 1.77-.409 3.578-1.387 5.077a7.358 7.358 0 01-3.64 2.922 9.243 9.243 0 01-3.008.557c-1.932.037-3.925-.434-5.498-1.573-1.337-.953-2.315-2.352-2.81-3.912-.347-1.04-.483-2.155-.47-3.257.012-1.919.569-3.875 1.77-5.385.978-1.25 2.377-2.142 3.9-2.588a8.75 8.75 0 012.204-.384zm-53.079.73a5.716 5.716 0 012.947-.755 5.42 5.42 0 014.16 2.241c.483-.656 1.151-1.163 1.87-1.523 1.621-.78 3.59-.903 5.261-.222.78.321 1.486.817 2.031 1.46.557.657.929 1.45 1.151 2.266.236.855.298 1.746.273 2.625v9.93c-1.226-.248-2.464-.508-3.702-.743-.012-3.17 0-6.34-.012-9.509.012-.73-.248-1.473-.768-1.98-.557-.57-1.375-.843-2.167-.83-.706-.013-1.424.198-1.98.644-.632.495-.967 1.312-.967 2.117v10.301c-1.238-.248-2.476-.508-3.714-.743-.012-1.015 0-2.043-.012-3.07V31.55c.024-.731-.223-1.486-.743-2.006-.458-.47-1.09-.743-1.721-.818-.607-.061-1.226-.012-1.796.223a2.658 2.658 0 00-1.374 1.3c-.186.397-.272.83-.272 1.263v8.023c.012.743-.013 1.486.012 2.23-1.238-.236-2.464-.509-3.69-.731-.024-.434.013-.88-.024-1.3.012-.496.012-.991 0-1.486.037-.458 0-.929.012-1.387v-3.937c-.012-.817.012-1.647-.012-2.464a26.06 26.06 0 000-1.387c.024-.916.012-1.82.012-2.736.012-.087-.062-.223.037-.273l3.665-.705c-.012.557 0 1.114 0 1.671.433-.52.941-.965 1.523-1.287zm40.388-.507c.594-.1 1.2-.198 1.795-.297v3.863c-.594.111-1.188.223-1.783.322-.891.148-1.82.408-2.488 1.052-.545.508-.805 1.25-.855 1.981-.037.52-.012 1.04-.012 1.573v8.023c-1.028-.21-2.055-.421-3.095-.62-.199-.037-.384-.086-.595-.11-.05-.286-.012-.57-.024-.855v-8.53c.024-.892.173-1.796.544-2.626.36-.83.99-1.535 1.734-2.055.99-.681 2.142-1.09 3.305-1.4.496-.11.966-.247 1.474-.321zm-15.23-7.095c.595-.074 1.239-.012 1.747.347.581.384.903 1.077.916 1.758.037.198-.013.409-.013.607-.061.62-.383 1.213-.916 1.56-.557.372-1.275.433-1.931.297a2.161 2.161 0 01-1.362-.94c-.36-.57-.421-1.288-.285-1.945.124-.619.545-1.188 1.114-1.46.236-.112.483-.186.73-.223z" fill="currentColor"/></svg><svg fill="none" viewBox="0 0 134 61" id="sponsors-logo-7" xmlns="http://www.w3.org/2000/svg"><path d="M8.583 29.428a.44.44 0 00-.748.081l-3.787 7.573a.453.453 0 00.404.656h5.275a.435.435 0 00.405-.25c1.138-2.352.448-5.927-1.549-8.06zM11.361 22.54a9.99 9.99 0 00-.583 9.862l2.543 5.085a.453.453 0 00.405.25h5.273a.453.453 0 00.405-.655l-7.273-14.546a.429.429 0 00-.77.003zM73.217 28.612c0 1.875.87 3.364 4.273 4.021 2.03.427 2.455.754 2.455 1.431 0 .657-.426 1.083-1.856 1.083a10.475 10.475 0 01-4.93-1.334v3.054c1.025.503 2.378 1.064 4.892 1.064 3.557 0 4.969-1.587 4.969-3.944l-9.803-5.375zm9.803 5.375c0-2.224-1.18-3.268-4.505-3.983-1.837-.406-2.282-.812-2.282-1.392 0-.734.657-1.044 1.876-1.044 1.47 0 2.92.444 4.292 1.063v-2.92a9.702 9.702 0 00-4.196-.87c-3.287 0-4.988 1.431-4.988 3.77M118.921 25.035v12.703h2.707V28.05l1.141 2.571 3.828 7.116H130V25.035h-2.707v8.198l-1.025-2.378-3.074-5.82h-4.273zM101.705 25.035h-2.958v12.703h2.958V25.035zM95.334 33.986c0-2.223-1.18-3.267-4.505-3.982-1.837-.406-2.281-.812-2.281-1.392 0-.734.657-1.044 1.875-1.044 1.47 0 2.92.444 4.292 1.063v-2.92a9.702 9.702 0 00-4.195-.87c-3.287 0-4.989 1.431-4.989 3.77 0 1.876.87 3.365 4.273 4.022 2.03.426 2.456.754 2.456 1.431 0 .657-.427 1.083-1.856 1.083a10.475 10.475 0 01-4.93-1.334v3.054c1.024.503 2.377 1.064 4.891 1.064 3.558 0 4.969-1.587 4.969-3.944zM50.236 25.035v12.703h6.08l.958-2.746h-4.06v-9.957h-2.978zM38.224 25.035v2.745h3.287v9.958h2.977V27.78h3.52v-2.745h-9.784zM33.907 25.035h-3.902l-4.43 12.703h3.383l.628-2.14a8.408 8.408 0 004.737 0l.628 2.14h3.384l-4.428-12.703zm-1.952 8.273c-.55 0-1.099-.08-1.628-.235l1.628-5.543 1.628 5.545a5.775 5.775 0 01-1.628.233zM66.8 25.035h-3.903l-4.43 12.703h3.384l.628-2.14a8.408 8.408 0 004.738 0l.628 2.14h3.383L66.8 25.035zm-1.952 8.273c-.55 0-1.099-.08-1.628-.235l1.628-5.543 1.628 5.545a5.776 5.776 0 01-1.628.233zM112.365 25.035h-3.902l-4.429 12.703h3.383l.628-2.14a8.41 8.41 0 004.738 0l.628 2.14h3.384l-4.43-12.703zm-1.952 8.273a5.778 5.778 0 01-1.628-.235l1.628-5.543 1.628 5.545a5.777 5.777 0 01-1.628.233z" fill="currentColor"/></svg><svg fill="none" viewBox="0 0 134 61" id="sponsors-logo-8" xmlns="http://www.w3.org/2000/svg"><path d="M53.529 38.16V28.02h.18l7.381 10.14h2.323V23.27h-2.58v10.114h-.181L53.27 23.269h-2.323v14.89h2.58zm17.188.23c3.406 0 5.497-2.197 5.497-5.875 0-3.652-2.09-5.874-5.497-5.874-3.381 0-5.497 2.222-5.497 5.874.026 3.678 2.09 5.875 5.497 5.875zm0-2.146c-1.807 0-2.84-1.353-2.84-3.729 0-2.35 1.033-3.729 2.84-3.729 1.806 0 2.838 1.38 2.838 3.73 0 2.375-1.032 3.728-2.838 3.728zm7.845-12.132v2.835h-1.806v2.044h1.806v6.155c0 2.197 1.032 3.065 3.665 3.065.49 0 .98-.051 1.367-.128v-1.992c-.31.026-.516.051-.877.051-1.084 0-1.574-.485-1.574-1.61v-5.541h2.451v-2.044h-2.451v-2.835h-2.58zm6.58 14.048h2.582V26.87h-2.581v11.29zm1.291-13.154a1.545 1.545 0 100-3.09 1.545 1.545 0 100 3.09zm8.362 13.384c3.406 0 5.497-2.197 5.497-5.875 0-3.652-2.09-5.874-5.497-5.874-3.38 0-5.497 2.222-5.497 5.874 0 3.678 2.064 5.875 5.497 5.875zm0-2.146c-1.807 0-2.839-1.353-2.839-3.729 0-2.35 1.032-3.729 2.839-3.729 1.78 0 2.839 1.38 2.839 3.73-.026 2.375-1.058 3.728-2.84 3.728zm7.019 1.916h2.581v-6.564c0-1.66.981-2.708 2.504-2.708 1.574 0 2.296.869 2.296 2.58v6.692h2.581v-7.305c0-2.707-1.393-4.214-3.923-4.214-1.703 0-2.838.766-3.38 2.043h-.181V26.87h-2.503c.025 0 .025 11.29.025 11.29z" fill="currentColor"/><path fill-rule="evenodd" clip-rule="evenodd" d="M26.203 22.316c.752.606 1.023.558 2.43.463l13.248-.798c.288 0 .048-.287-.048-.319l-2.205-1.578c-.416-.32-.991-.702-2.062-.606l-12.817.94c-.463.048-.56.288-.367.463l1.821 1.435zm.8 3.078v13.905c0 .75.367 1.02 1.214.973l14.56-.846c.846-.047.942-.558.942-1.164v-13.81c0-.605-.24-.94-.751-.892l-15.214.893c-.56.048-.752.335-.752.94zm14.367.75c.096.414 0 .844-.416.892l-.703.144v10.27c-.607.318-1.167.51-1.646.51-.751 0-.943-.24-1.502-.941l-4.587-7.192v6.952l1.454.32s0 .844-1.166.844l-3.229.192c-.095-.192 0-.654.32-.75l.847-.239v-9.185l-1.167-.096c-.095-.414.144-1.02.8-1.068l3.468-.24 4.778 7.272v-6.426l-1.215-.144c-.096-.51.288-.893.752-.94l3.212-.176zm-17.692-7.001l13.345-.973c1.63-.143 2.061-.048 3.084.702l4.251 2.982c.703.51.943.654.943 1.212v16.376c0 1.02-.367 1.627-1.678 1.722l-15.486.941c-.99.048-1.454-.095-1.966-.75l-3.148-4.065c-.56-.75-.799-1.308-.799-1.962V20.77c0-.845.384-1.53 1.454-1.626z" fill="currentColor"/></svg></svg>