<svg width="134" height="61" viewBox="0 0 134 61" fill="none" xmlns="http://www.w3.org/2000/svg">
<path d="M8.58299 29.4278C8.53709 29.3677 8.47646 29.3205 8.40698 29.2907C8.33749 29.2609 8.2615 29.2495 8.18633 29.2577C8.11117 29.2659 8.03939 29.2933 7.97792 29.3373C7.91646 29.3813 7.86739 29.4404 7.83545 29.509L4.04754 37.0824C4.01304 37.1514 3.99674 37.2281 4.00021 37.3052C4.00368 37.3823 4.0268 37.4572 4.06737 37.5229C4.10793 37.5885 4.16461 37.6427 4.232 37.6803C4.2994 37.7179 4.37529 37.7376 4.45245 37.7376H9.72692C9.8114 37.7396 9.89463 37.717 9.9665 37.6725C10.0384 37.6281 10.0958 37.5638 10.1318 37.4873C11.2696 35.1363 10.5801 31.5615 8.58299 29.4278Z" fill="currentColor"/>
<path d="M11.361 22.5393C10.4172 23.9916 9.86718 25.6643 9.76493 27.3933C9.66269 29.1223 10.0117 30.8482 10.7778 32.4016L13.3207 37.4873C13.3583 37.5625 13.4161 37.6258 13.4876 37.67C13.5591 37.7142 13.6415 37.7376 13.7256 37.7376H18.9991C19.0763 37.7376 19.1522 37.7179 19.2196 37.6803C19.287 37.6427 19.3437 37.5885 19.3842 37.5229C19.4248 37.4573 19.4479 37.3823 19.4514 37.3052C19.4549 37.2282 19.4386 37.1515 19.4041 37.0824C19.4041 37.0824 12.3094 22.8914 12.1311 22.5365C12.0958 22.4643 12.0409 22.4034 11.9727 22.3609C11.9044 22.3185 11.8256 22.2961 11.7452 22.2964C11.6648 22.2967 11.5861 22.3196 11.5182 22.3626C11.4502 22.4056 11.3958 22.4668 11.361 22.5393Z" fill="currentColor"/>
<path d="M73.217 28.6118C73.217 30.4871 74.087 31.9761 77.4898 32.6334C79.5201 33.0596 79.9453 33.3873 79.9453 34.0641C79.9453 34.7214 79.5191 35.1469 78.0892 35.1469C76.3609 35.1158 74.6671 34.6575 73.159 33.8128V36.8674C74.1838 37.3701 75.537 37.9308 78.0506 37.9308C81.6081 37.9308 83.0196 36.3443 83.0196 33.9866L73.217 28.6118ZM83.0196 33.9866C83.0196 31.7632 81.8401 30.719 78.5147 30.0039C76.6779 29.5978 76.2332 29.1919 76.2332 28.6118C76.2332 27.8777 76.8905 27.5678 78.1086 27.5678C79.5781 27.5678 81.0282 28.0125 82.4008 28.6312V25.7116C81.0846 25.1125 79.6511 24.8153 78.2052 24.8416C74.9183 24.8416 73.217 26.2723 73.217 28.6118" fill="currentColor"/>
<path d="M118.921 25.0349V37.7377H121.628V28.0511L122.769 30.6224L126.597 37.7377H130V25.0349H127.293V33.2328L126.268 30.8545L123.194 25.0349H118.921Z" fill="currentColor"/>
<path d="M101.705 25.0349H98.7472V37.7377H101.705V25.0349Z" fill="currentColor"/>
<path d="M95.334 33.9865C95.334 31.7631 94.1545 30.7188 90.8291 30.0037C88.9923 29.5977 88.5476 29.1918 88.5476 28.6117C88.5476 27.8776 89.2049 27.5677 90.423 27.5677C91.8925 27.5677 93.3426 28.0123 94.7152 28.6311V25.7115C93.399 25.1124 91.9655 24.8152 90.5196 24.8415C87.2327 24.8415 85.5314 26.2722 85.5314 28.6117C85.5314 30.487 86.4014 31.976 89.8043 32.6333C91.8345 33.0595 92.2598 33.3872 92.2598 34.064C92.2598 34.7213 91.8335 35.1468 90.4036 35.1468C88.6753 35.1157 86.9815 34.6574 85.4734 33.8127V36.8673C86.4982 37.37 87.8515 37.9307 90.365 37.9307C93.9225 37.9307 95.334 36.3442 95.334 33.9865Z" fill="currentColor"/>
<path d="M50.2362 25.0349V37.7377H56.3164L57.2738 34.9921H53.2136V25.0349H50.2362Z" fill="currentColor"/>
<path d="M38.2241 25.0349V27.7802H41.5109V37.7377H44.4883V27.7802H48.0072V25.0349H38.2241Z" fill="currentColor"/>
<path d="M33.9065 25.0349H30.0045L25.5749 37.7377H28.9576L29.5856 35.5983C31.1322 36.0524 32.7767 36.0524 34.3233 35.5983L34.9512 37.7377H38.3347L33.9065 25.0349ZM31.9554 33.3076C31.4043 33.3076 30.8561 33.2287 30.3274 33.0734L31.9554 27.53L33.5833 33.0753C33.0545 33.23 32.5063 33.3082 31.9554 33.3076Z" fill="currentColor"/>
<path d="M66.7991 25.0349H62.8973L58.4677 37.7377H61.8512L62.4792 35.5983C64.0257 36.0524 65.6703 36.0524 67.2168 35.5983L67.8448 37.7377H71.2283L66.7991 25.0349ZM64.8482 33.3076C64.2972 33.3076 63.749 33.2287 63.2203 33.0734L64.8482 27.53L66.4762 33.0753C65.9474 33.23 65.3992 33.3082 64.8482 33.3076Z" fill="currentColor"/>
<path d="M112.365 25.0349H108.463L104.034 37.7377H107.417L108.045 35.5983C109.592 36.0524 111.236 36.0524 112.783 35.5983L113.411 37.7377H116.795L112.365 25.0349ZM110.413 33.3076C109.862 33.3076 109.314 33.2287 108.785 33.0734L110.413 27.53L112.041 33.0753C111.512 33.23 110.964 33.3082 110.413 33.3076Z" fill="currentColor"/>
</svg>
