<svg width="134" height="135" viewBox="0 0 134 135" fill="none" xmlns="http://www.w3.org/2000/svg">
<path d="M53.5289 75.1598V65.0199H53.7096L61.0905 75.1598H63.4131V60.2692H60.8324V70.3836H60.6518L53.2709 60.2692H50.9482V75.1598H53.5289ZM70.7166 75.3897C74.1232 75.3897 76.2136 73.1931 76.2136 69.5152C76.2136 65.8627 74.1232 63.6406 70.7166 63.6406C67.3359 63.6406 65.2197 65.8627 65.2197 69.5152C65.2455 73.1931 67.31 75.3897 70.7166 75.3897ZM70.7166 73.2442C68.9101 73.2442 67.8778 71.8905 67.8778 69.5152C67.8778 67.1654 68.9101 65.7861 70.7166 65.7861C72.5231 65.7861 73.5554 67.1654 73.5554 69.5152C73.5554 71.8905 72.5231 73.2442 70.7166 73.2442ZM78.5621 61.112V63.9471H76.7555V65.9905H78.5621V72.1459C78.5621 74.3425 79.5943 75.2109 82.2267 75.2109C82.717 75.2109 83.2074 75.1598 83.5945 75.0832V73.091C83.2848 73.1165 83.0783 73.1421 82.717 73.1421C81.6331 73.1421 81.1428 72.6568 81.1428 71.5329V65.9905H83.5945V63.9471H81.1428V61.112H78.5621ZM85.1429 75.1598H87.7237V63.8705H85.1429V75.1598ZM86.4333 62.006C87.2849 62.006 87.9817 61.3164 87.9817 60.4735C87.9817 59.6051 87.2849 58.9155 86.4333 58.9155C85.5817 58.9155 84.8849 59.6051 84.8849 60.4735C84.8849 61.3164 85.5817 62.006 86.4333 62.006ZM94.7949 75.3897C98.2014 75.3897 100.292 73.1931 100.292 69.5152C100.292 65.8627 98.2014 63.6406 94.7949 63.6406C91.4141 63.6406 89.2979 65.8627 89.2979 69.5152C89.2979 73.1931 91.3625 75.3897 94.7949 75.3897ZM94.7949 73.2442C92.9884 73.2442 91.9561 71.8905 91.9561 69.5152C91.9561 67.1654 92.9884 65.7861 94.7949 65.7861C96.5756 65.7861 97.6337 67.1654 97.6337 69.5152C97.6079 71.8905 96.5756 73.2442 94.7949 73.2442ZM101.814 75.1598H104.395V68.5957C104.395 66.9355 105.376 65.8883 106.899 65.8883C108.473 65.8883 109.195 66.7567 109.195 68.468V75.1598H111.776V67.855C111.776 65.1476 110.383 63.6406 107.853 63.6406C106.15 63.6406 105.015 64.4069 104.473 65.684H104.292V63.8705H101.789C101.814 63.8705 101.814 75.1598 101.814 75.1598Z" fill="currentColor"/>
<path fill-rule="evenodd" clip-rule="evenodd" d="M26.2034 59.3161C26.9545 59.9221 27.2262 59.8742 28.6325 59.7785L41.8811 58.9812C42.1688 58.9812 41.9291 58.6942 41.8332 58.6623L39.6278 57.0836C39.2122 56.7647 38.6369 56.382 37.5662 56.4777L24.7491 57.4185C24.2856 57.4663 24.1897 57.7055 24.3815 57.8809L26.2034 59.3161ZM27.0024 62.3937V76.2988C27.0024 77.0483 27.37 77.3194 28.217 77.2715L42.7761 76.4264C43.6231 76.3785 43.719 75.8683 43.719 75.2623V61.4529C43.719 60.8469 43.4793 60.5121 42.9679 60.5599L27.7536 61.4529C27.1942 61.5007 27.0024 61.7878 27.0024 62.3937ZM41.3697 63.1432C41.4656 63.5578 41.3697 63.9883 40.9542 64.0362L40.251 64.1797V74.449C39.6437 74.768 39.0844 74.9593 38.6049 74.9593C37.8538 74.9593 37.662 74.7201 37.1027 74.0185L32.516 66.8268V73.7793L33.9703 74.0982C33.9703 74.0982 33.9703 74.9434 32.8037 74.9434L29.5754 75.1347C29.4796 74.9434 29.5754 74.4809 29.8951 74.3853L30.7421 74.1461V64.9611L29.5754 64.8654C29.4796 64.4508 29.7193 63.8448 30.3745 63.797L33.8425 63.5578L38.6209 70.8293V64.4029L37.4063 64.2594C37.3104 63.7491 37.694 63.3664 38.1575 63.3186L41.3697 63.1432ZM23.6783 56.1428L37.0228 55.1701C38.6529 55.0266 39.0844 55.1222 40.1072 55.8717L44.3582 58.8537C45.0614 59.3639 45.3012 59.5075 45.3012 60.0656V76.4423C45.3012 77.4629 44.9336 78.0688 43.6231 78.1645L28.1371 79.1053C27.1463 79.1532 26.6828 79.0097 26.1714 78.3559L23.0231 74.2896C22.4637 73.5401 22.224 72.982 22.224 72.3282V57.7693C22.224 56.9242 22.6076 56.2385 23.6783 56.1428Z" fill="currentColor"/>
</svg>
