<svg width="134" height="135" viewBox="0 0 134 135" fill="none" xmlns="http://www.w3.org/2000/svg">
<path fill-rule="evenodd" clip-rule="evenodd" d="M25.3082 57.4629C24.5342 57.2946 23.6873 57.2141 22.7487 57.2141H13.5V76.8305H23.0087C23.8869 76.8305 24.7458 76.7202 25.5719 76.5005C26.4077 76.2807 27.1541 75.9433 27.8036 75.4829C28.4487 75.027 28.9716 74.4363 29.3552 73.7071C29.7359 72.9867 29.9266 72.1301 29.9266 71.1349C29.9266 69.9081 29.6346 68.8615 29.0394 67.9862C28.4465 67.1176 27.5518 66.5068 26.3443 66.1597C27.2315 65.7403 27.8945 65.2002 28.3466 64.5417C28.7943 63.8825 29.0185 63.0572 29.0185 62.0702C29.0185 61.1569 28.8688 60.3844 28.5701 59.7684C28.2632 59.1419 27.8356 58.6451 27.2896 58.2719C26.7347 57.8979 26.0777 57.626 25.3082 57.4629ZM23.6396 73.3666C23.2597 73.4516 22.8552 73.4896 22.4284 73.4896H17.8197V68.0875H22.5155C23.4452 68.0875 24.2005 68.3013 24.7674 68.7311C25.3335 69.1676 25.6181 69.885 25.6181 70.8965C25.6181 71.412 25.5339 71.8388 25.3596 72.1681C25.186 72.4996 24.9462 72.7603 24.6579 72.951C24.3689 73.1484 24.0262 73.2825 23.6396 73.3666ZM24.091 64.5894C23.589 64.9582 22.9558 65.1392 22.19 65.1392H17.8197V60.555H21.8608C22.2422 60.555 22.6154 60.5826 22.9714 60.6519C23.3335 60.7144 23.6456 60.8299 23.9219 60.9967C24.2005 61.1569 24.421 61.3863 24.5879 61.6791C24.7488 61.9718 24.8285 62.3487 24.8285 62.8054C24.8285 63.627 24.5879 64.2267 24.091 64.5894Z" fill="currentColor"/>
<path fill-rule="evenodd" clip-rule="evenodd" d="M38.6066 74.2821C37.5123 74.2821 36.6684 73.9953 36.0844 73.4247C35.4974 72.8541 35.1182 71.7904 35.1182 70.6678H45.3673C45.4411 69.5661 45.3517 68.5128 45.0962 67.5057C44.8385 66.4963 44.4273 65.5965 43.8477 64.8098C43.2689 64.0217 42.5322 63.3915 41.6331 62.9275C40.7311 62.4567 39.6785 62.225 38.4762 62.225C37.3887 62.225 36.4054 62.4187 35.5145 62.8031C34.6236 63.1889 33.8579 63.7171 33.2128 64.3867C32.5692 65.0527 32.0798 65.8468 31.7252 66.7675C31.3781 67.6844 31.2008 68.6766 31.2008 69.7381C31.2008 70.8369 31.3714 71.8507 31.7103 72.7662C32.053 73.6869 32.5342 74.4705 33.1532 75.1335C33.7886 75.7927 34.5432 76.2993 35.4467 76.6605C36.351 77.0174 37.3574 77.1984 38.4762 77.1984C40.0823 77.1984 41.4596 76.8304 42.5896 76.0929C43.7323 75.3577 44.5703 74.1376 45.1223 72.4272H41.6868C41.5534 72.8675 41.2093 73.2906 40.6447 73.6869C40.0741 74.0832 39.394 74.2821 38.6066 74.2821ZM38.3593 65.1711C39.3172 65.1711 40.1031 65.4482 40.5664 65.9615C41.032 66.4792 41.3724 67.2144 41.4655 68.2088H35.1182C35.1361 67.9317 35.1957 67.6181 35.2963 67.2725C35.3961 66.9179 35.5674 66.5864 35.8192 66.2721C36.0724 65.963 36.4032 65.7008 36.8069 65.4892C37.2203 65.2754 37.7358 65.1711 38.3593 65.1711Z" fill="currentColor"/>
<path d="M50.9106 57.2141V64.6103H51C51.4954 63.7872 52.1219 63.189 52.8913 62.818C53.6601 62.4448 54.4102 62.2594 55.1417 62.2594C56.1838 62.2594 57.0367 62.3964 57.7041 62.6795C58.3716 62.9663 58.899 63.3551 59.2856 63.8609C59.6655 64.3645 59.9329 64.9798 60.0901 65.7038C60.2443 66.4264 60.3247 67.2234 60.3247 68.1024V76.8305H56.4043V68.8108C56.4043 67.6406 56.2218 66.7616 55.8575 66.1865C55.4933 65.6107 54.8474 65.3217 53.9141 65.3217C52.8593 65.3217 52.0973 65.642 51.625 66.2722C51.143 66.9038 50.9106 67.9422 50.9106 69.3874V76.8305H46.991V57.2141H50.9106Z" fill="currentColor"/>
<path fill-rule="evenodd" clip-rule="evenodd" d="M64.639 63.2463C64.017 63.6113 63.5052 64.1007 63.1082 64.7048C62.6985 65.3089 62.4713 66.0702 62.4147 66.9917H66.3291C66.4074 66.2192 66.6599 65.6665 67.1001 65.3305C67.5284 65.005 68.1333 64.8344 68.8961 64.8344C69.2395 64.8344 69.562 64.8598 69.8652 64.9037C70.1639 64.9521 70.4231 65.0423 70.654 65.1808C70.8775 65.3194 71.0615 65.5101 71.1963 65.7559C71.3319 66.0062 71.4056 66.3414 71.4056 66.7615C71.4235 67.169 71.3021 67.4736 71.0496 67.6844C70.7919 67.8938 70.4425 68.0584 70.0052 68.1679C69.562 68.2789 69.0659 68.3586 68.4923 68.4152C67.9217 68.4711 67.3489 68.5448 66.7612 68.6349C66.1831 68.7251 65.5991 68.8524 65.0233 69.0081C64.4438 69.1616 63.9306 69.397 63.4851 69.7091C63.0307 70.0197 62.6679 70.4391 62.3894 70.9613C62.1018 71.482 61.9573 72.1479 61.9573 72.9569C61.9573 73.6906 62.0839 74.3245 62.3298 74.8586C62.5771 75.3882 62.916 75.827 63.357 76.1793C63.7957 76.5265 64.3097 76.7827 64.8892 76.9481C65.4777 77.1127 66.1064 77.1984 66.7813 77.1984C67.6618 77.1984 68.5192 77.0702 69.3601 76.8155C70.2078 76.5577 70.9364 76.1063 71.5569 75.4642C71.5747 75.7033 71.6068 75.9365 71.653 76.1637C71.6977 76.3954 71.7952 76.6605 71.9114 76.8304L75.8974 76.8401C75.7082 76.5496 75.5071 76.1063 75.4304 75.5164C75.3611 74.9301 75.3223 74.3186 75.3223 73.675V66.2721C75.3223 65.408 75.1272 64.7115 74.7406 64.1968C74.3584 63.6679 73.8661 63.2642 73.2627 62.9677C72.6571 62.6735 71.9911 62.4761 71.2611 62.3762C70.5207 62.2749 69.8004 62.225 69.089 62.225C68.2987 62.225 67.5195 62.3003 66.7403 62.4612C65.9582 62.6161 65.2617 62.8761 64.639 63.2463ZM69.9985 70.4391C70.2756 70.381 70.5438 70.3132 70.7866 70.232C71.0377 70.1501 71.2373 70.0354 71.4056 69.8849V71.3449C71.4056 71.5661 71.3826 71.8604 71.3319 72.2269C71.2917 72.5904 71.1703 72.9509 70.9699 73.3077C70.7725 73.6653 70.4559 73.9729 70.0373 74.2292C69.6149 74.4847 69.0235 74.6121 68.2569 74.6121C67.9478 74.6121 67.6461 74.5912 67.3541 74.5324C67.0659 74.4787 66.8081 74.3826 66.5876 74.2441C66.3664 74.1063 66.1973 73.9208 66.0684 73.6817C65.9433 73.4418 65.877 73.1483 65.877 72.8019C65.877 72.4384 65.9433 72.13 66.0684 71.8932C66.1973 71.6578 66.3664 71.4611 66.5779 71.3039C66.7813 71.1482 67.0294 71.0253 67.3124 70.9337C67.5903 70.8406 67.883 70.7691 68.175 70.711C68.4812 70.6559 68.797 70.6134 69.1039 70.5769C69.4138 70.5374 69.7125 70.4935 69.9985 70.4391Z" fill="currentColor"/>
<path d="M81.1741 62.6305V64.6104H81.2613C81.7544 63.7873 82.392 63.1891 83.1831 62.8182C83.9675 62.445 84.7802 62.2595 85.6033 62.2595C86.6499 62.2595 87.5095 62.3966 88.1732 62.6796C88.8488 62.9664 89.374 63.3553 89.7546 63.861C90.145 64.3646 90.4131 64.9799 90.5696 65.7039C90.7275 66.4265 90.8057 67.2235 90.8057 68.1025V76.8306H86.8838V68.8109C86.8838 67.6407 86.6998 66.7617 86.3341 66.1866C85.9623 65.6108 85.3225 65.2421 84.3832 65.2421C83.3224 65.2421 82.5485 65.6421 82.074 66.2723C81.595 66.904 81.3589 67.9424 81.3589 69.3875V76.8306H77.4794V62.6305H81.1741Z" fill="currentColor"/>
<path d="M97.9272 65.5965C98.3436 65.3089 98.8613 65.1711 99.4885 65.1711C101.156 65.1711 102.117 65.9801 102.371 67.601H106.196C106.136 66.69 105.918 65.8929 105.538 65.227C105.153 64.5618 104.65 64.0039 104.036 63.5569C103.424 63.1055 102.726 62.7703 101.95 62.5528C101.167 62.339 100.358 62.225 99.5146 62.225C98.3622 62.225 97.3357 62.4187 96.4374 62.8031C95.5353 63.1889 94.7725 63.7253 94.149 64.415C93.5196 65.1004 93.0473 65.9175 92.7278 66.8613C92.4067 67.8073 92.2451 68.8316 92.2451 69.9311C92.2451 70.9933 92.4194 71.9714 92.7658 72.8623C93.1203 73.7509 93.6045 74.5167 94.2287 75.1603C94.853 75.8017 95.6105 76.2993 96.5029 76.6605C97.3968 77.0174 98.3659 77.1984 99.4326 77.1984C101.32 77.1984 102.87 76.6985 104.081 75.713C105.287 74.7208 106.02 73.2824 106.278 71.3985H102.511C102.379 72.2775 102.069 72.9785 101.567 73.5007C101.062 74.0199 100.343 74.2821 99.4036 74.2821C98.798 74.2821 98.2877 74.145 97.8683 73.8679C97.4467 73.5908 97.113 73.2385 96.862 72.8109C96.6147 72.3751 96.4396 71.8961 96.3256 71.365C96.2191 70.8317 96.1595 70.3095 96.1595 69.794C96.1595 69.2607 96.2191 68.7251 96.3256 68.1828C96.4396 67.6405 96.6236 67.1451 96.8895 66.6974C97.1547 66.2468 97.5018 65.884 97.9272 65.5965Z" fill="currentColor"/>
<path d="M42.272 58.5299H34.3201V60.4659H42.272V58.5299Z" fill="currentColor"/>
<path fill-rule="evenodd" clip-rule="evenodd" d="M114.718 74.2821C113.616 74.2821 112.731 73.9953 112.145 73.4247C111.557 72.8541 111.182 71.7904 111.182 70.6678H121.477C121.549 69.5661 121.452 68.5128 121.2 67.5057C120.945 66.4963 120.528 65.5965 119.95 64.8098C119.375 64.0217 118.634 63.3915 117.733 62.9275C116.84 62.4567 115.783 62.225 114.583 62.225C113.5 62.225 112.51 62.4187 111.617 62.8031C110.729 63.1889 109.97 63.7171 109.321 64.3867C108.682 65.0527 108.182 65.8468 107.83 66.7675C107.483 67.6844 107.309 68.6766 107.309 69.7381C107.309 70.8369 107.477 71.8507 107.816 72.7662C108.157 73.6869 108.637 74.4705 109.263 75.1335C109.895 75.7927 110.651 76.2993 111.553 76.6605C112.45 77.0174 113.461 77.1984 114.583 77.1984C116.194 77.1984 117.566 76.8304 118.7 76.0929C119.836 75.3577 120.679 74.1376 121.228 72.4272H117.792C117.667 72.8675 117.316 73.2906 116.749 73.6869C116.182 74.0832 115.503 74.2821 114.718 74.2821ZM114.469 65.1711C115.415 65.1711 116.206 65.4482 116.676 65.9615C117.141 66.4792 117.474 67.2144 117.578 68.2088H111.182C111.199 67.9317 111.264 67.6181 111.356 67.2725C111.46 66.9179 111.638 66.5864 111.886 66.2721C112.134 65.963 112.504 65.7008 112.908 65.4892C113.328 65.2754 113.846 65.1711 114.469 65.1711Z" fill="currentColor"/>
</svg>
