<svg width="134" height="60" viewBox="0 0 134 60" fill="none" xmlns="http://www.w3.org/2000/svg">
<path d="M39.8429 22.5098H45.5595C49.204 22.5098 52.2147 24.6185 52.2147 29.4331V30.4448C52.2147 35.296 49.399 37.4778 45.6692 37.4778H39.8429V22.5098ZM43.0364 25.228V34.7475H45.4864C47.5585 34.7475 48.948 33.3945 48.948 30.3839V29.5916C48.948 26.5809 47.4854 25.228 45.3767 25.228H43.0364ZM53.9089 25.3742H56.4686L56.883 28.1899C57.3706 26.2762 58.6138 25.2523 60.8688 25.2523H61.6611V28.4824H60.3447C57.7484 28.4824 57.1146 29.3844 57.1146 31.9441V37.5144H53.9577V25.3742H53.9089ZM62.2949 31.6881V31.3468C62.2949 27.2879 64.8911 25.0695 68.4259 25.0695C72.0339 25.0695 74.557 27.2879 74.557 31.3468V31.6881C74.557 35.6739 72.107 37.8191 68.4259 37.8191C64.5133 37.7825 62.2949 35.6861 62.2949 31.6881ZM71.3269 31.6515V31.3468C71.3269 29.0918 70.1933 27.7389 68.3894 27.7389C66.622 27.7389 65.4518 28.9821 65.4518 31.3468V31.6515C65.4518 33.8333 66.5854 35.0766 68.3894 35.0766C70.1933 35.04 71.3269 33.8333 71.3269 31.6515ZM76.2147 25.3742H78.8475L79.1522 27.6657C79.786 26.1299 81.139 25.0695 83.138 25.0695C86.2218 25.0695 88.2573 27.2879 88.2573 31.3955V31.7368C88.2573 35.7226 86.0024 37.8313 83.138 37.8313C81.2243 37.8313 79.9079 36.9659 79.2619 35.5764V41.7074H76.1781L76.2147 25.3742ZM85.0516 31.6515V31.3834C85.0516 28.97 83.8084 27.7754 82.1507 27.7754C80.3833 27.7754 79.2131 29.1284 79.2131 31.3834V31.615C79.2131 33.7602 80.3467 35.1132 82.1141 35.1132C83.9302 35.0766 85.0516 33.9187 85.0516 31.6515ZM92.9257 35.2716L92.6575 37.49H89.9516V21.3153H93.0354V27.5195C93.718 25.9349 95.0709 25.0695 96.9846 25.0695C99.8856 25.1061 102.031 27.105 102.031 31.1274V31.5053C102.031 35.5276 99.9953 37.8313 96.9115 37.8313C94.8759 37.7825 93.5595 36.844 92.9257 35.2716ZM98.7886 31.5053V31.2005C98.7886 28.9821 97.5818 27.7389 95.8876 27.7389C94.1568 27.7389 92.9501 29.1284 92.9501 31.2371V31.5053C92.9501 33.7602 94.1202 35.0766 95.851 35.0766C97.7038 35.0766 98.7886 33.9187 98.7886 31.5053ZM103.384 31.6881V31.3468C103.384 27.2879 105.98 25.0695 109.515 25.0695C113.123 25.0695 115.646 27.2879 115.646 31.3468V31.6881C115.646 35.6739 113.159 37.8191 109.515 37.8191C105.602 37.7825 103.384 35.6861 103.384 31.6881ZM112.44 31.6515V31.3468C112.44 29.0918 111.307 27.7389 109.503 27.7389C107.735 27.7389 106.565 28.9821 106.565 31.3468V31.6515C106.565 33.8333 107.699 35.0766 109.503 35.0766C111.319 35.04 112.44 33.8333 112.44 31.6515ZM119.778 31.2005L115.524 25.3742H119.168L121.618 29.0187L124.105 25.3742H127.713L123.398 31.164L127.944 37.49H124.373L121.594 33.4677L118.888 37.49H115.158L119.778 31.2005Z" fill="currentColor"/>
<path d="M20.1943 22.5099L13.1248 27.0198L20.1943 31.5297L13.1248 36.0396L6.05518 31.5053L13.1248 26.9954L6.05518 22.5099L13.1248 18L20.1943 22.5099ZM13.0882 37.4901L20.1578 32.9802L27.2273 37.4901L20.1578 42L13.0882 37.4901ZM20.1943 31.5053L27.2639 26.9954L20.1943 22.5099L27.2273 18L34.2969 22.5099L27.2273 27.0198L34.2969 31.5297L27.2273 36.0396L20.1943 31.5053Z" fill="currentColor"/>
</svg>
