<svg width="134" height="134" viewBox="0 0 134 134" fill="none" xmlns="http://www.w3.org/2000/svg">
<path d="M42.5254 61.1839H47.496C50.2493 61.1839 51.6787 62.3128 51.6787 64.4326V64.5382C51.718 65.1594 51.533 65.774 51.1574 66.2703C50.7818 66.7667 50.2405 67.1117 49.632 67.2427C50.3607 67.3069 51.0347 67.6559 51.5076 68.2139C51.9805 68.772 52.2142 69.4941 52.1579 70.2235V70.2966C52.1579 72.6113 50.6391 73.8295 47.7234 73.8295H42.5254V61.1839ZM47.033 66.3737C48.4137 66.3737 48.9579 65.8783 48.9579 64.7493V64.6762C48.9579 63.6204 48.3569 63.1412 47.0168 63.1412H45.3193V66.39L47.033 66.3737ZM47.2767 71.8397C48.6899 71.8397 49.3315 71.1981 49.3315 70.0529V69.9798C49.3315 68.8103 48.6899 68.2174 47.1386 68.2174H45.3193V71.8478L47.2767 71.8397Z" fill="currentColor"/>
<path d="M52.9061 71.2547C52.9061 69.0943 54.8798 68.2821 57.7143 68.2821H58.7539V67.9166C58.7539 66.8201 58.4209 66.2191 57.2513 66.2191C57.062 66.1967 56.8701 66.2132 56.6874 66.2676C56.5047 66.3221 56.3351 66.4134 56.189 66.5359C56.043 66.6584 55.9235 66.8095 55.838 66.9799C55.7525 67.1503 55.7028 67.3364 55.6919 67.5267H53.2554C53.4178 65.3339 55.1478 64.3592 57.4138 64.3592C59.6798 64.3592 61.2798 65.277 61.2798 67.7866V73.813H58.7864V72.7003C58.4734 73.1412 58.0516 73.4935 57.5619 73.7227C57.0722 73.9518 56.5315 74.0501 55.9925 74.008C54.3193 74.008 52.9061 73.1958 52.9061 71.2547ZM58.7539 70.5806V69.7684H57.763C56.2767 69.7684 55.4158 70.0932 55.4158 71.076C55.4158 71.7501 55.8219 72.1968 56.7559 72.1968C57.8848 72.2293 58.7539 71.6039 58.7539 70.5806Z" fill="currentColor"/>
<path d="M62.3605 70.9137H64.7483C64.8539 71.7259 65.26 72.2294 66.3727 72.2294C67.3635 72.2294 67.8265 71.8558 67.8265 71.2142C67.8265 70.5726 67.2742 70.3127 65.9503 70.1259C63.5138 69.7523 62.5392 69.0457 62.5392 67.2426C62.5392 65.4396 64.3097 64.3594 66.194 64.3594C68.2488 64.3594 69.7839 65.1066 70.0113 67.2264H67.664C67.526 66.4629 67.0955 66.1137 66.2184 66.1137C65.3412 66.1137 64.9107 66.5036 64.9107 67.064C64.9107 67.6244 65.3493 67.8761 66.6894 68.0711C69.0042 68.4041 70.2793 68.9888 70.2793 70.9706C70.2793 72.9523 68.8336 74.0081 66.3889 74.0081C63.9442 74.0081 62.4498 72.9117 62.3605 70.9137Z" fill="currentColor"/>
<path d="M70.9382 69.3057V69.1676C70.9074 68.5329 71.0088 67.8987 71.2359 67.3052C71.4631 66.7117 71.811 66.1719 72.2577 65.7198C72.7043 65.2678 73.24 64.9135 73.8308 64.6794C74.4215 64.4452 75.0545 64.3363 75.6895 64.3595C78.0773 64.3595 80.1971 65.7565 80.1971 69.0621V69.7687H73.5616C73.6266 71.3037 74.4631 72.2052 75.852 72.2052C77.0377 72.2052 77.6225 71.6935 77.785 70.9138H80.2215C79.921 72.9118 78.3291 74.0245 75.8032 74.0245C72.9687 74.0083 70.9382 72.2621 70.9382 69.3057ZM77.7037 68.193C77.6225 66.7961 76.9078 66.1626 75.6895 66.1626C75.1411 66.16 74.6129 66.3701 74.2161 66.7487C73.8193 67.1273 73.5847 67.645 73.5616 68.193H77.7037Z" fill="currentColor"/>
<path d="M80.8717 69.3055V69.1675C80.8407 68.5313 80.9425 67.8957 81.1706 67.3011C81.3987 66.7064 81.7481 66.1657 82.1965 65.7135C82.645 65.2612 83.1827 64.9073 83.7754 64.6741C84.3681 64.441 85.0028 64.3338 85.6392 64.3594C87.7834 64.3594 89.757 65.2934 89.9925 67.9492H87.5559C87.5397 67.7212 87.4779 67.4989 87.3741 67.2953C87.2702 67.0917 87.1265 66.9111 86.9515 66.7641C86.7765 66.6171 86.5738 66.5068 86.3553 66.4397C86.1368 66.3726 85.9071 66.3501 85.6798 66.3736C84.3559 66.3736 83.4707 67.3644 83.4707 69.135V69.2731C83.4707 71.133 84.2828 72.0832 85.7367 72.0832C85.984 72.0974 86.2317 72.0623 86.4654 71.9799C86.699 71.8974 86.9139 71.7694 87.0976 71.6031C87.2813 71.4368 87.43 71.2356 87.5352 71.0113C87.6404 70.787 87.6999 70.544 87.7103 70.2964H90.025C89.8869 72.4893 88.295 74.0081 85.6067 74.0081C82.9184 74.0081 80.8717 72.3269 80.8717 69.3055Z" fill="currentColor"/>
<path d="M90.6156 71.2547C90.6156 69.0943 92.5893 68.2821 95.4157 68.2821H96.4634V67.9166C96.4634 66.8201 96.1223 66.2191 94.9608 66.2191C94.7703 66.1943 94.5766 66.209 94.392 66.2623C94.2074 66.3157 94.0358 66.4066 93.8879 66.5293C93.74 66.6521 93.619 66.804 93.5325 66.9756C93.446 67.1472 93.3959 67.3349 93.3852 67.5267H90.9486C91.1111 65.3339 92.841 64.3592 95.0989 64.3592C97.3568 64.3592 98.973 65.277 98.973 67.7866V73.813H96.4796V72.7003C96.1667 73.1412 95.7448 73.4935 95.2551 73.7227C94.7655 73.9518 94.2247 74.0501 93.6857 74.008C92.0613 74.008 90.6156 73.1958 90.6156 71.2547ZM96.4634 70.5806V69.7684H95.4888C94.0025 69.7684 93.1334 70.0932 93.1334 71.076C93.1334 71.7501 93.5476 72.1968 94.4816 72.1968C95.6268 72.2293 96.4959 71.6039 96.4959 70.5806H96.4634Z" fill="currentColor"/>
<path d="M100.777 64.5381H103.336V65.9513C103.615 65.4492 104.025 65.0326 104.523 64.7464C105.021 64.4602 105.588 64.3152 106.162 64.3269C106.71 64.2831 107.258 64.4175 107.723 64.7103C108.189 65.003 108.547 65.4383 108.745 65.9513C109.086 65.4418 109.55 65.0261 110.093 64.7423C110.637 64.4585 111.243 64.3157 111.856 64.3269C113.569 64.3269 114.893 65.4071 114.893 67.8599V73.7807H112.351V68.1767C112.351 66.9909 111.823 66.4629 110.897 66.4629C110.651 66.4522 110.405 66.4948 110.177 66.5877C109.949 66.6806 109.743 66.8217 109.574 67.0014C109.405 67.181 109.277 67.395 109.199 67.6286C109.12 67.8623 109.093 68.1102 109.119 68.3553V73.8132H106.568V68.1767C106.568 66.9909 106.024 66.4629 105.123 66.4629C104.876 66.451 104.629 66.4927 104.4 66.5851C104.17 66.6774 103.964 66.8184 103.794 66.9981C103.624 67.1779 103.495 67.3923 103.416 67.6266C103.337 67.8608 103.31 68.1095 103.336 68.3553V73.8132H100.777V64.5381Z" fill="currentColor"/>
<path d="M116.647 64.5381H119.213V65.9919C119.519 65.4834 119.952 65.0628 120.468 64.771C120.985 64.4792 121.568 64.3262 122.162 64.3269C124.428 64.3269 126.223 66.0081 126.223 69.0619V69.2081C126.223 72.2619 124.493 73.9756 122.162 73.9756C121.569 74 120.981 73.8614 120.461 73.5751C119.941 73.2887 119.51 72.8655 119.213 72.3513V76.9645H116.647V64.5381ZM123.591 69.0863C123.591 67.2102 122.673 66.2924 121.382 66.2924C120.091 66.2924 119.124 67.2264 119.124 69.0863V69.2244C119.124 71.0761 120.009 71.9777 121.406 71.9777C122.803 71.9777 123.591 71.0355 123.591 69.2569V69.0863Z" fill="currentColor"/>
<path fill-rule="evenodd" clip-rule="evenodd" d="M23.538 56.7695C16.3311 56.7695 12.5727 62.8739 10.4683 68.8403C10.2139 69.5615 9.42301 69.94 8.70177 69.6856C7.98053 69.4312 7.60206 68.6403 7.85645 67.9191C9.99168 61.8652 14.3551 54 23.538 54C28.338 54 31.7736 57.1754 33.9956 60.9904C36.2234 64.8153 37.4112 69.5514 37.6789 73.3754C37.6981 73.6502 37.6349 73.9246 37.4974 74.1633C36.2106 76.3971 34.0698 77.8528 31.6295 78.7443C29.1953 79.6337 26.3755 79.997 23.5491 79.998C21.1478 80.0354 18.7666 79.5548 16.5677 78.5889C14.3653 77.6215 12.3978 76.1899 10.7995 74.3921C10.4595 74.0097 10.3582 73.4709 10.5359 72.991L11.8345 73.4721C10.5359 72.991 10.5359 72.991 10.5359 72.991L10.539 72.9829L10.5457 72.9648C10.5515 72.9495 10.5597 72.9278 10.5702 72.9002C10.5914 72.8448 10.622 72.7655 10.6615 72.6655C10.7404 72.4658 10.855 72.183 10.9998 71.8445C11.2882 71.1707 11.7025 70.2625 12.2001 69.3455C12.6913 68.4407 13.2952 67.4679 13.9743 66.7014C14.5934 66.0027 15.5558 65.1515 16.7875 65.1432L16.7969 65.1431C17.6673 65.1431 18.3823 65.5416 18.8969 65.9247C19.4157 66.3109 19.8868 66.8017 20.2643 67.2012C20.3076 67.247 20.3497 67.2916 20.3907 67.3351C20.7423 67.7079 21.0112 67.993 21.2666 68.2064C21.2953 68.2304 21.3217 68.2516 21.3458 68.2702C21.4288 68.1854 21.528 68.0741 21.6421 67.9326C22.0479 67.4294 22.5038 66.7207 22.945 65.9619C23.3803 65.2131 23.7766 64.4588 24.0654 63.8882C24.2094 63.6039 24.3255 63.3675 24.4053 63.203C24.4451 63.1208 24.4758 63.0567 24.4963 63.0137L24.5191 62.9655L24.5257 62.9516C24.8504 62.2592 25.675 61.9607 26.3674 62.2852C27.0599 62.6098 27.3581 63.4343 27.0335 64.1268L25.8899 63.5908C27.0335 64.1268 27.0335 64.1268 27.0335 64.1268L27.0305 64.1332L27.0233 64.1485L26.9967 64.2046C26.9737 64.253 26.9402 64.3229 26.8973 64.4112C26.8117 64.5879 26.6884 64.8387 26.5363 65.1392C26.2331 65.7382 25.8105 66.5433 25.3393 67.3539C24.8738 68.1545 24.3353 69.0051 23.7977 69.6715C23.5312 70.0019 23.229 70.3324 22.9022 70.5924C22.6134 70.8221 22.1039 71.1614 21.4507 71.1614C20.5871 71.1614 19.9066 70.6792 19.4907 70.3316C19.0987 70.0041 18.7071 69.5877 18.3782 69.238C18.3348 69.1919 18.2924 69.1469 18.2514 69.1034C17.8614 68.6907 17.5426 68.3693 17.2431 68.1463C16.9806 67.9509 16.8466 67.9188 16.8081 67.9136C16.8071 67.9141 16.8053 67.9147 16.8029 67.9155C16.7606 67.9305 16.5062 68.0201 16.0472 68.5382C15.5712 69.0753 15.0843 69.8375 14.6343 70.6666C14.1908 71.4837 13.8137 72.3085 13.546 72.9341C13.5115 73.0148 13.4789 73.0918 13.4484 73.1649C14.6671 74.3793 16.1019 75.3593 17.6816 76.0532C19.519 76.8604 21.5089 77.2613 23.5155 77.2286C23.523 77.2285 23.5305 77.2284 23.538 77.2284C26.1577 77.2284 28.6373 76.889 30.6791 76.143C32.5575 75.4567 33.9904 74.4564 34.8811 73.1285C34.5793 69.7254 33.4953 65.6341 31.6024 62.3843C29.6213 58.9829 26.9331 56.7695 23.538 56.7695ZM21.1181 68.467C21.1181 68.467 21.1242 68.4624 21.1358 68.4565C21.1238 68.4646 21.1181 68.467 21.1181 68.467Z" fill="currentColor"/>
</svg>
