<svg width="134" height="61" viewBox="0 0 134 61" fill="none" xmlns="http://www.w3.org/2000/svg">
<path fill-rule="evenodd" clip-rule="evenodd" d="M62.2841 26.0408C63.5222 25.8055 64.7603 25.5579 65.9861 25.3227C65.9737 30.8076 65.9737 36.2801 65.9861 41.7527C64.7603 41.5051 63.5222 41.245 62.2964 41.0098C62.2593 40.5269 62.2841 40.0441 62.2841 39.5612C62.2717 35.0668 62.2717 30.56 62.2841 26.0408ZM92.2345 28.4675C91.1945 28.4923 90.1297 28.8142 89.3249 29.4828C88.6563 30.0276 88.1734 30.7704 87.901 31.5876C87.6039 32.4667 87.542 33.4201 87.6534 34.3486C87.7772 35.4134 88.1982 36.4659 88.9411 37.2459C89.523 37.8649 90.3154 38.2983 91.1449 38.484C92.185 38.7193 93.3117 38.6821 94.2898 38.224C95.0079 37.9021 95.6022 37.3325 96.0232 36.664C96.4937 35.9087 96.7289 35.0296 96.8032 34.1382C96.8899 33.1353 96.7784 32.1076 96.407 31.1666C96.0851 30.3247 95.5032 29.5695 94.7231 29.0866C93.9803 28.6285 93.1012 28.4304 92.2345 28.4675ZM91.6897 25.0131C93.485 24.8893 95.367 25.2236 96.9146 26.177C97.7813 26.7094 98.5242 27.4151 99.1061 28.2447C99.6138 28.9875 99.9852 29.8171 100.245 30.6838C100.518 31.6124 100.617 32.5905 100.629 33.5562C100.629 35.3268 100.22 37.1344 99.2423 38.6326C98.388 39.9698 97.088 41.0098 95.6022 41.5546C94.6365 41.9136 93.6212 42.087 92.5935 42.1117C90.6621 42.1489 88.6687 41.6784 87.0962 40.5393C85.759 39.5859 84.7809 38.1869 84.2857 36.6268C83.939 35.5868 83.8028 34.4725 83.8152 33.3705C83.8276 31.4514 84.3847 29.4952 85.5857 27.9846C86.5638 26.7341 87.9629 25.8427 89.4858 25.397C90.1916 25.1741 90.9344 25.0503 91.6897 25.0131ZM38.611 25.7436C39.5024 25.2236 40.5301 24.976 41.5577 24.9884C43.1921 25.0503 44.7645 25.8922 45.7178 27.2294C46.2007 26.5732 46.8693 26.0655 47.5874 25.7065C49.2094 24.9265 51.178 24.8026 52.8495 25.4836C53.6295 25.8055 54.3352 26.3008 54.88 26.9446C55.4372 27.6008 55.8086 28.3932 56.0315 29.2104C56.2667 30.0647 56.3286 30.9562 56.3039 31.8352C56.3039 35.1411 56.3039 38.4592 56.3039 41.7651C55.0781 41.5174 53.84 41.2574 52.6019 41.0222C52.5895 37.8526 52.6019 34.6829 52.5895 31.5133C52.6019 30.7828 52.3419 30.0399 51.8218 29.5323C51.2647 28.9628 50.4475 28.6904 49.6551 28.7028C48.9494 28.6904 48.2313 28.9009 47.6741 29.3466C47.0426 29.8418 46.7084 30.659 46.7084 31.4638C46.7084 34.8934 46.7084 38.3354 46.7084 41.7651C45.4702 41.5174 44.2321 41.2574 42.994 41.0222C42.9816 40.0069 42.994 38.9793 42.9816 37.9516C42.9816 35.822 42.9816 33.6924 42.9816 31.5505C43.0063 30.82 42.7587 30.0647 42.2387 29.5447C41.7806 29.0742 41.1491 28.8018 40.5177 28.7275C39.911 28.6656 39.2919 28.7151 38.7224 28.9504C38.1281 29.198 37.6205 29.6685 37.3481 30.2504C37.1624 30.6466 37.0757 31.08 37.0757 31.5133C37.0757 34.1877 37.0757 36.8621 37.0757 39.5364C37.0881 40.2793 37.0633 41.0222 37.0881 41.7651C35.8499 41.5298 34.6242 41.2574 33.3984 41.0346C33.3737 40.6012 33.4108 40.1555 33.3737 39.7345C33.386 39.2393 33.386 38.744 33.3737 38.2488C33.4108 37.7907 33.3737 37.3202 33.386 36.8621C33.386 35.5496 33.386 34.2372 33.386 32.9248C33.3737 32.1076 33.3984 31.2781 33.3737 30.4609C33.386 30.0028 33.386 29.5323 33.3737 29.0742C33.3984 28.158 33.386 27.2542 33.386 26.3379C33.3984 26.2513 33.3241 26.1151 33.4232 26.0655C34.6489 25.8303 35.8623 25.5951 37.0881 25.3598C37.0757 25.917 37.0881 26.4741 37.0881 27.0313C37.5214 26.5113 38.029 26.0655 38.611 25.7436ZM78.9988 25.236C79.5932 25.1369 80.1998 25.0379 80.7941 24.9388C80.7941 26.2265 80.7941 27.5142 80.7941 28.8018C80.1998 28.9132 79.6055 29.0247 79.0112 29.1237C78.1198 29.2723 77.1912 29.5323 76.5226 30.1761C75.9778 30.6838 75.7178 31.4267 75.6683 32.1572C75.6311 32.6772 75.6559 33.1972 75.6559 33.7296C75.6559 36.4039 75.6559 39.0783 75.6559 41.7527C74.6282 41.5422 73.6006 41.3317 72.5606 41.1336C72.3625 41.0965 72.1767 41.0469 71.9663 41.0222C71.9167 40.7374 71.9539 40.4526 71.9415 40.1679C71.9415 37.3202 71.9415 34.4848 71.9415 31.6371C71.9663 30.7457 72.1148 29.8418 72.4863 29.0123C72.8453 28.1828 73.4768 27.477 74.2197 26.957C75.2102 26.276 76.3616 25.8674 77.5255 25.5579C78.0207 25.4465 78.4912 25.3103 78.9988 25.236ZM63.7698 18.1415C64.3641 18.0672 65.0079 18.1291 65.5156 18.4882C66.0975 18.872 66.4194 19.5653 66.4318 20.2463C66.4689 20.4444 66.4194 20.6549 66.4194 20.853C66.3575 21.4721 66.0356 22.0664 65.5032 22.4131C64.946 22.7845 64.2279 22.8464 63.5717 22.7102C63.0269 22.5988 62.5193 22.2521 62.2098 21.7692C61.8507 21.1997 61.7888 20.4816 61.925 19.8254C62.0488 19.2063 62.4698 18.6368 63.0393 18.3644C63.2746 18.2529 63.5222 18.1786 63.7698 18.1415Z" fill="currentColor"/>
</svg>
