<svg width="134" height="134" viewBox="0 0 134 134" fill="none" xmlns="http://www.w3.org/2000/svg">
<path d="M39.8429 59.5098H45.5595C49.204 59.5098 52.2147 61.6185 52.2147 66.4331V67.4448C52.2147 72.296 49.399 74.4778 45.6692 74.4778H39.8429V59.5098ZM43.0364 62.228V71.7475H45.4864C47.5585 71.7475 48.948 70.3945 48.948 67.3839V66.5916C48.948 63.5809 47.4854 62.228 45.3767 62.228H43.0364ZM53.9089 62.3742H56.4686L56.883 65.1899C57.3706 63.2762 58.6138 62.2523 60.8688 62.2523H61.6611V65.4824H60.3447C57.7484 65.4824 57.1146 66.3844 57.1146 68.9441V74.5144H53.9577V62.3742H53.9089ZM62.2949 68.6881V68.3468C62.2949 64.2879 64.8911 62.0695 68.4259 62.0695C72.0339 62.0695 74.557 64.2879 74.557 68.3468V68.6881C74.557 72.6739 72.107 74.8191 68.4259 74.8191C64.5133 74.7825 62.2949 72.6861 62.2949 68.6881ZM71.3269 68.6515V68.3468C71.3269 66.0918 70.1933 64.7389 68.3894 64.7389C66.622 64.7389 65.4518 65.9821 65.4518 68.3468V68.6515C65.4518 70.8333 66.5854 72.0766 68.3894 72.0766C70.1933 72.04 71.3269 70.8333 71.3269 68.6515ZM76.2147 62.3742H78.8475L79.1522 64.6657C79.786 63.1299 81.139 62.0695 83.138 62.0695C86.2218 62.0695 88.2573 64.2879 88.2573 68.3955V68.7368C88.2573 72.7226 86.0024 74.8313 83.138 74.8313C81.2243 74.8313 79.9079 73.9659 79.2619 72.5764V78.7074H76.1781L76.2147 62.3742ZM85.0516 68.6515V68.3834C85.0516 65.97 83.8084 64.7754 82.1507 64.7754C80.3833 64.7754 79.2131 66.1284 79.2131 68.3834V68.615C79.2131 70.7602 80.3467 72.1132 82.1141 72.1132C83.9302 72.0766 85.0516 70.9187 85.0516 68.6515ZM92.9257 72.2716L92.6575 74.49H89.9516V58.3153H93.0354V64.5195C93.718 62.9349 95.0709 62.0695 96.9846 62.0695C99.8856 62.1061 102.031 64.105 102.031 68.1274V68.5053C102.031 72.5276 99.9953 74.8313 96.9115 74.8313C94.8759 74.7825 93.5595 73.844 92.9257 72.2716ZM98.7886 68.5053V68.2005C98.7886 65.9821 97.5818 64.7389 95.8876 64.7389C94.1568 64.7389 92.9501 66.1284 92.9501 68.2371V68.5053C92.9501 70.7602 94.1202 72.0766 95.851 72.0766C97.7037 72.0766 98.7886 70.9187 98.7886 68.5053ZM103.384 68.6881V68.3468C103.384 64.2879 105.98 62.0695 109.515 62.0695C113.123 62.0695 115.646 64.2879 115.646 68.3468V68.6881C115.646 72.6739 113.159 74.8191 109.515 74.8191C105.602 74.7825 103.384 72.6861 103.384 68.6881ZM112.44 68.6515V68.3468C112.44 66.0918 111.307 64.7389 109.503 64.7389C107.735 64.7389 106.565 65.9821 106.565 68.3468V68.6515C106.565 70.8333 107.699 72.0766 109.503 72.0766C111.319 72.04 112.44 70.8333 112.44 68.6515ZM119.778 68.2005L115.524 62.3742H119.168L121.618 66.0187L124.105 62.3742H127.713L123.398 68.164L127.944 74.49H124.373L121.594 70.4677L118.888 74.49H115.158L119.778 68.2005Z" fill="currentColor"/>
<path d="M20.1943 59.5099L13.1248 64.0198L20.1943 68.5297L13.1248 73.0396L6.05518 68.5053L13.1248 63.9954L6.05518 59.5099L13.1248 55L20.1943 59.5099ZM13.0882 74.4901L20.1578 69.9802L27.2273 74.4901L20.1578 79L13.0882 74.4901ZM20.1943 68.5053L27.2639 63.9954L20.1943 59.5099L27.2273 55L34.2969 59.5099L27.2273 64.0198L34.2969 68.5297L27.2273 73.0396L20.1943 68.5053Z" fill="currentColor"/>
</svg>
