<svg width="134" height="61" viewBox="0 0 134 61" fill="none" xmlns="http://www.w3.org/2000/svg">
<path d="M53.5289 38.1598V28.0199H53.7096L61.0905 38.1598H63.4131V23.2692H60.8324V33.3836H60.6518L53.2709 23.2692H50.9482V38.1598H53.5289ZM70.7166 38.3897C74.1232 38.3897 76.2136 36.1931 76.2136 32.5152C76.2136 28.8627 74.1232 26.6406 70.7166 26.6406C67.3359 26.6406 65.2197 28.8627 65.2197 32.5152C65.2455 36.1931 67.3101 38.3897 70.7166 38.3897ZM70.7166 36.2442C68.9101 36.2442 67.8778 34.8905 67.8778 32.5152C67.8778 30.1654 68.9101 28.7861 70.7166 28.7861C72.5231 28.7861 73.5554 30.1654 73.5554 32.5152C73.5554 34.8905 72.5231 36.2442 70.7166 36.2442ZM78.5621 24.112V26.9471H76.7555V28.9905H78.5621V35.1459C78.5621 37.3425 79.5943 38.2109 82.2267 38.2109C82.717 38.2109 83.2074 38.1598 83.5945 38.0832V36.091C83.2848 36.1165 83.0783 36.1421 82.717 36.1421C81.6331 36.1421 81.1428 35.6568 81.1428 34.5329V28.9905H83.5945V26.9471H81.1428V24.112H78.5621ZM85.1429 38.1598H87.7237V26.8705H85.1429V38.1598ZM86.4333 25.006C87.2849 25.006 87.9817 24.3164 87.9817 23.4735C87.9817 22.6051 87.2849 21.9155 86.4333 21.9155C85.5817 21.9155 84.8849 22.6051 84.8849 23.4735C84.8849 24.3164 85.5817 25.006 86.4333 25.006ZM94.7949 38.3897C98.2014 38.3897 100.292 36.1931 100.292 32.5152C100.292 28.8627 98.2014 26.6406 94.7949 26.6406C91.4141 26.6406 89.2979 28.8627 89.2979 32.5152C89.2979 36.1931 91.3625 38.3897 94.7949 38.3897ZM94.7949 36.2442C92.9884 36.2442 91.9561 34.8905 91.9561 32.5152C91.9561 30.1654 92.9884 28.7861 94.7949 28.7861C96.5756 28.7861 97.6337 30.1654 97.6337 32.5152C97.6079 34.8905 96.5756 36.2442 94.7949 36.2442ZM101.814 38.1598H104.395V31.5957C104.395 29.9355 105.376 28.8883 106.899 28.8883C108.473 28.8883 109.195 29.7567 109.195 31.468V38.1598H111.776V30.855C111.776 28.1476 110.383 26.6406 107.853 26.6406C106.15 26.6406 105.015 27.4069 104.473 28.684H104.292V26.8705H101.789C101.814 26.8705 101.814 38.1598 101.814 38.1598Z" fill="currentColor"/>
<path fill-rule="evenodd" clip-rule="evenodd" d="M26.2034 22.3161C26.9545 22.9221 27.2262 22.8742 28.6325 22.7785L41.8811 21.9812C42.1688 21.9812 41.9291 21.6942 41.8332 21.6623L39.6278 20.0836C39.2122 19.7647 38.6369 19.382 37.5662 19.4777L24.7491 20.4185C24.2856 20.4663 24.1897 20.7055 24.3815 20.8809L26.2034 22.3161ZM27.0024 25.3937V39.2988C27.0024 40.0483 27.37 40.3194 28.217 40.2715L42.7761 39.4264C43.6231 39.3785 43.719 38.8683 43.719 38.2623V24.4529C43.719 23.8469 43.4793 23.5121 42.9679 23.5599L27.7536 24.4529C27.1942 24.5007 27.0024 24.7878 27.0024 25.3937ZM41.3697 26.1432C41.4656 26.5578 41.3697 26.9883 40.9542 27.0362L40.251 27.1797V37.4491C39.6437 37.768 39.0844 37.9593 38.6049 37.9593C37.8538 37.9593 37.662 37.7201 37.1027 37.0185L32.516 29.8268V36.7793L33.9703 37.0982C33.9703 37.0982 33.9703 37.9434 32.8037 37.9434L29.5754 38.1347C29.4796 37.9434 29.5754 37.4809 29.8951 37.3853L30.7421 37.1461V27.9611L29.5754 27.8654C29.4796 27.4508 29.7193 26.8448 30.3745 26.797L33.8425 26.5578L38.6209 33.8293V27.4029L37.4063 27.2594C37.3104 26.7491 37.694 26.3664 38.1575 26.3186L41.3697 26.1432ZM23.6783 19.1428L37.0228 18.1701C38.6529 18.0266 39.0844 18.1222 40.1072 18.8717L44.3582 21.8537C45.0614 22.3639 45.3012 22.5075 45.3012 23.0656V39.4423C45.3012 40.4629 44.9336 41.0688 43.6231 41.1645L28.1371 42.1053C27.1463 42.1532 26.6828 42.0097 26.1714 41.3559L23.0231 37.2896C22.4637 36.5401 22.224 35.982 22.224 35.3282V20.7693C22.224 19.9242 22.6076 19.2385 23.6783 19.1428Z" fill="currentColor"/>
</svg>
