<svg width="134" height="61" viewBox="0 0 134 61" fill="none" xmlns="http://www.w3.org/2000/svg">
<path fill-rule="evenodd" clip-rule="evenodd" d="M25.3082 20.4629C24.5342 20.2946 23.6873 20.2141 22.7487 20.2141H13.5V39.8305H23.0087C23.8869 39.8305 24.7458 39.7202 25.5719 39.5005C26.4077 39.2807 27.1541 38.9433 27.8036 38.4829C28.4487 38.027 28.9716 37.4363 29.3552 36.7071C29.7359 35.9867 29.9266 35.1301 29.9266 34.1349C29.9266 32.908 29.6346 31.8615 29.0394 30.9862C28.4465 30.1176 27.5518 29.5068 26.3443 29.1597C27.2315 28.7403 27.8945 28.2002 28.3466 27.5417C28.7943 26.8825 29.0185 26.0572 29.0185 25.0702C29.0185 24.1569 28.8688 23.3844 28.5701 22.7684C28.2632 22.1419 27.8356 21.6451 27.2896 21.2719C26.7347 20.8979 26.0777 20.626 25.3082 20.4629ZM23.6396 36.3666C23.2597 36.4516 22.8552 36.4896 22.4284 36.4896H17.8197V31.0875H22.5155C23.4452 31.0875 24.2005 31.3013 24.7674 31.7311C25.3335 32.1676 25.6181 32.885 25.6181 33.8965C25.6181 34.412 25.5339 34.8388 25.3596 35.1681C25.186 35.4996 24.9462 35.7603 24.6579 35.951C24.3689 36.1484 24.0262 36.2825 23.6396 36.3666ZM24.091 27.5894C23.589 27.9582 22.9558 28.1392 22.19 28.1392H17.8197V23.555H21.8608C22.2422 23.555 22.6154 23.5826 22.9714 23.6519C23.3335 23.7144 23.6456 23.8299 23.9219 23.9967C24.2005 24.1569 24.421 24.3863 24.5879 24.6791C24.7488 24.9718 24.8285 25.3487 24.8285 25.8054C24.8285 26.627 24.5879 27.2267 24.091 27.5894Z" fill="currentColor"/>
<path fill-rule="evenodd" clip-rule="evenodd" d="M38.6066 37.2821C37.5123 37.2821 36.6684 36.9953 36.0844 36.4247C35.4974 35.8541 35.1182 34.7904 35.1182 33.6678H45.3673C45.4411 32.5661 45.3517 31.5128 45.0962 30.5057C44.8385 29.4963 44.4273 28.5965 43.8477 27.8098C43.2689 27.0217 42.5322 26.3915 41.6331 25.9275C40.7311 25.4567 39.6785 25.225 38.4762 25.225C37.3887 25.225 36.4054 25.4187 35.5145 25.8031C34.6236 26.1889 33.8579 26.7171 33.2128 27.3867C32.5692 28.0527 32.0798 28.8468 31.7252 29.7675C31.3781 30.6844 31.2008 31.6766 31.2008 32.7381C31.2008 33.8369 31.3714 34.8507 31.7103 35.7662C32.053 36.6869 32.5342 37.4705 33.1532 38.1335C33.7886 38.7927 34.5432 39.2993 35.4467 39.6605C36.351 40.0174 37.3574 40.1984 38.4762 40.1984C40.0823 40.1984 41.4596 39.8304 42.5896 39.0929C43.7323 38.3577 44.5703 37.1376 45.1223 35.4272H41.6868C41.5534 35.8675 41.2093 36.2906 40.6447 36.6869C40.0741 37.0832 39.394 37.2821 38.6066 37.2821ZM38.3593 28.1711C39.3172 28.1711 40.1031 28.4482 40.5664 28.9615C41.032 29.4792 41.3724 30.2144 41.4655 31.2088H35.1182C35.1361 30.9317 35.1957 30.6181 35.2963 30.2725C35.3961 29.9179 35.5674 29.5864 35.8192 29.2721C36.0724 28.963 36.4032 28.7008 36.8069 28.4892C37.2203 28.2754 37.7358 28.1711 38.3593 28.1711Z" fill="currentColor"/>
<path d="M50.9106 20.2141V27.6103H51C51.4954 26.7872 52.1218 26.189 52.8913 25.818C53.6601 25.4448 54.4102 25.2594 55.1417 25.2594C56.1838 25.2594 57.0367 25.3964 57.7041 25.6795C58.3716 25.9663 58.899 26.3551 59.2856 26.8609C59.6655 27.3645 59.9329 27.9798 60.0901 28.7038C60.2443 29.4264 60.3247 30.2234 60.3247 31.1024V39.8305H56.4043V31.8108C56.4043 30.6406 56.2218 29.7616 55.8575 29.1865C55.4933 28.6107 54.8475 28.3217 53.9141 28.3217C52.8593 28.3217 52.0973 28.642 51.625 29.2722C51.143 29.9038 50.9106 30.9422 50.9106 32.3874V39.8305H46.991V20.2141H50.9106Z" fill="currentColor"/>
<path fill-rule="evenodd" clip-rule="evenodd" d="M64.639 26.2463C64.017 26.6113 63.5052 27.1007 63.1082 27.7048C62.6985 28.3089 62.4713 29.0702 62.4147 29.9917H66.3291C66.4074 29.2192 66.6599 28.6665 67.1001 28.3305C67.5284 28.005 68.1333 27.8344 68.8961 27.8344C69.2395 27.8344 69.562 27.8598 69.8652 27.9037C70.1639 27.9521 70.4231 28.0423 70.654 28.1808C70.8775 28.3194 71.0615 28.5101 71.1963 28.7559C71.3319 29.0062 71.4056 29.3414 71.4056 29.7615C71.4235 30.169 71.3021 30.4736 71.0496 30.6844C70.7919 30.8938 70.4425 31.0584 70.0052 31.1679C69.562 31.2789 69.0659 31.3586 68.4923 31.4152C67.9217 31.4711 67.3489 31.5448 66.7612 31.6349C66.1831 31.7251 65.5991 31.8524 65.0233 32.0081C64.4438 32.1616 63.9306 32.397 63.4851 32.7091C63.0307 33.0197 62.6679 33.4391 62.3894 33.9613C62.1018 34.482 61.9573 35.1479 61.9573 35.9569C61.9573 36.6906 62.0839 37.3245 62.3298 37.8586C62.5771 38.3882 62.916 38.827 63.357 39.1793C63.7957 39.5265 64.3097 39.7827 64.8892 39.9481C65.4777 40.1127 66.1064 40.1984 66.7813 40.1984C67.6618 40.1984 68.5192 40.0702 69.3601 39.8155C70.2078 39.5578 70.9364 39.1063 71.5569 38.4642C71.5747 38.7033 71.6068 38.9365 71.653 39.1637C71.6977 39.3954 71.7952 39.6605 71.9114 39.8304L75.8974 39.8401C75.7082 39.5496 75.5071 39.1063 75.4304 38.5164C75.3611 37.9301 75.3223 37.3186 75.3223 36.675V29.2721C75.3223 28.408 75.1272 27.7115 74.7406 27.1968C74.3584 26.6679 73.8661 26.2642 73.2627 25.9677C72.6571 25.6735 71.9911 25.4761 71.2611 25.3762C70.5207 25.2749 69.8004 25.225 69.089 25.225C68.2987 25.225 67.5195 25.3003 66.7403 25.4612C65.9582 25.6161 65.2617 25.8761 64.639 26.2463ZM69.9985 33.4391C70.2756 33.381 70.5438 33.3132 70.7866 33.232C71.0377 33.1501 71.2373 33.0354 71.4056 32.8849V34.3449C71.4056 34.5661 71.3826 34.8604 71.3319 35.2269C71.2917 35.5904 71.1703 35.9509 70.9699 36.3077C70.7725 36.6653 70.4559 36.9729 70.0373 37.2292C69.6149 37.4847 69.0235 37.6121 68.257 37.6121C67.9478 37.6121 67.6461 37.5912 67.3541 37.5324C67.0659 37.4787 66.8081 37.3826 66.5876 37.2441C66.3664 37.1063 66.1973 36.9208 66.0684 36.6817C65.9433 36.4418 65.877 36.1483 65.877 35.8019C65.877 35.4384 65.9433 35.13 66.0684 34.8932C66.1973 34.6578 66.3664 34.4611 66.5779 34.3039C66.7813 34.1482 67.0294 34.0253 67.3124 33.9337C67.5903 33.8406 67.883 33.7691 68.175 33.711C68.4812 33.6559 68.797 33.6134 69.1039 33.5769C69.4138 33.5374 69.7125 33.4935 69.9985 33.4391Z" fill="currentColor"/>
<path d="M81.1741 25.6305V27.6104H81.2613C81.7544 26.7873 82.392 26.1891 83.1831 25.8182C83.9675 25.445 84.7802 25.2595 85.6033 25.2595C86.6499 25.2595 87.5095 25.3966 88.1732 25.6796C88.8488 25.9664 89.374 26.3553 89.7546 26.861C90.145 27.3646 90.4131 27.9799 90.5696 28.7039C90.7275 29.4265 90.8057 30.2235 90.8057 31.1025V39.8306H86.8838V31.8109C86.8838 30.6407 86.6998 29.7617 86.3341 29.1866C85.9623 28.6108 85.3225 28.2421 84.3832 28.2421C83.3224 28.2421 82.5485 28.6421 82.074 29.2723C81.595 29.904 81.3588 30.9424 81.3588 32.3875V39.8306H77.4794V25.6305H81.1741Z" fill="currentColor"/>
<path d="M97.9272 28.5965C98.3436 28.3089 98.8613 28.1711 99.4885 28.1711C101.156 28.1711 102.117 28.9801 102.371 30.601H106.196C106.136 29.69 105.918 28.8929 105.538 28.227C105.153 27.5618 104.65 27.0039 104.036 26.5569C103.424 26.1055 102.726 25.7703 101.95 25.5528C101.167 25.339 100.358 25.225 99.5146 25.225C98.3622 25.225 97.3357 25.4187 96.4374 25.8031C95.5353 26.1889 94.7725 26.7253 94.149 27.415C93.5196 28.1004 93.0473 28.9175 92.7278 29.8613C92.4067 30.8073 92.2451 31.8316 92.2451 32.9311C92.2451 33.9933 92.4194 34.9714 92.7658 35.8623C93.1203 36.7509 93.6045 37.5167 94.2287 38.1603C94.853 38.8017 95.6105 39.2993 96.5029 39.6605C97.3968 40.0174 98.3659 40.1984 99.4326 40.1984C101.32 40.1984 102.87 39.6985 104.081 38.713C105.287 37.7208 106.02 36.2824 106.278 34.3985H102.511C102.379 35.2775 102.069 35.9785 101.567 36.5007C101.062 37.0199 100.343 37.2821 99.4036 37.2821C98.798 37.2821 98.2877 37.145 97.8683 36.8679C97.4467 36.5908 97.113 36.2385 96.862 35.8109C96.6147 35.3751 96.4396 34.8961 96.3256 34.365C96.2191 33.8317 96.1595 33.3095 96.1595 32.794C96.1595 32.2607 96.2191 31.7251 96.3256 31.1828C96.4396 30.6405 96.6236 30.1451 96.8895 29.6974C97.1547 29.2468 97.5018 28.884 97.9272 28.5965Z" fill="currentColor"/>
<path d="M42.272 21.5299H34.3201V23.4659H42.272V21.5299Z" fill="currentColor"/>
<path fill-rule="evenodd" clip-rule="evenodd" d="M114.718 37.2821C113.616 37.2821 112.731 36.9953 112.145 36.4247C111.557 35.8541 111.182 34.7904 111.182 33.6678H121.477C121.549 32.5661 121.452 31.5128 121.2 30.5057C120.945 29.4963 120.528 28.5965 119.95 27.8098C119.375 27.0217 118.634 26.3915 117.733 25.9275C116.84 25.4567 115.783 25.225 114.583 25.225C113.5 25.225 112.51 25.4187 111.617 25.8031C110.729 26.1889 109.97 26.7171 109.321 27.3867C108.682 28.0527 108.182 28.8468 107.83 29.7675C107.483 30.6844 107.309 31.6766 107.309 32.7381C107.309 33.8369 107.477 34.8507 107.816 35.7662C108.157 36.6869 108.637 37.4705 109.263 38.1335C109.895 38.7927 110.651 39.2993 111.553 39.6605C112.45 40.0174 113.461 40.1984 114.583 40.1984C116.194 40.1984 117.566 39.8304 118.7 39.0929C119.836 38.3577 120.679 37.1376 121.228 35.4272H117.792C117.667 35.8675 117.316 36.2906 116.749 36.6869C116.182 37.0832 115.503 37.2821 114.718 37.2821ZM114.469 28.1711C115.415 28.1711 116.206 28.4482 116.676 28.9615C117.141 29.4792 117.474 30.2144 117.578 31.2088H111.182C111.199 30.9317 111.264 30.6181 111.356 30.2725C111.46 29.9179 111.638 29.5864 111.886 29.2721C112.134 28.963 112.504 28.7008 112.908 28.4892C113.328 28.2754 113.846 28.1711 114.469 28.1711Z" fill="currentColor"/>
</svg>
