<svg width="134" height="135" viewBox="0 0 134 135" fill="none" xmlns="http://www.w3.org/2000/svg">
<path fill-rule="evenodd" clip-rule="evenodd" d="M62.2841 63.0408C63.5222 62.8055 64.7603 62.5579 65.9861 62.3227C65.9737 67.8076 65.9737 73.2801 65.9861 78.7527C64.7603 78.5051 63.5222 78.245 62.2964 78.0098C62.2593 77.5269 62.2841 77.0441 62.2841 76.5612C62.2717 72.0668 62.2717 67.56 62.2841 63.0408ZM92.2345 65.4675C91.1945 65.4923 90.1297 65.8142 89.3249 66.4828C88.6563 67.0276 88.1734 67.7704 87.901 68.5876C87.6039 69.4667 87.542 70.4201 87.6534 71.3486C87.7772 72.4134 88.1982 73.4659 88.9411 74.2459C89.523 74.8649 90.3154 75.2983 91.1449 75.484C92.185 75.7193 93.3117 75.6821 94.2898 75.224C95.0079 74.9021 95.6022 74.3325 96.0232 73.664C96.4937 72.9087 96.7289 72.0296 96.8032 71.1382C96.8899 70.1353 96.7784 69.1076 96.407 68.1666C96.0851 67.3247 95.5032 66.5695 94.7231 66.0866C93.9803 65.6285 93.1012 65.4304 92.2345 65.4675ZM91.6897 62.0131C93.485 61.8893 95.367 62.2236 96.9146 63.177C97.7813 63.7094 98.5242 64.4151 99.1061 65.2447C99.6138 65.9875 99.9852 66.8171 100.245 67.6838C100.518 68.6124 100.617 69.5905 100.629 70.5562C100.629 72.3268 100.22 74.1344 99.2423 75.6326C98.388 76.9698 97.088 78.0098 95.6022 78.5546C94.6365 78.9136 93.6212 79.087 92.5935 79.1117C90.6621 79.1489 88.6687 78.6784 87.0962 77.5393C85.759 76.5859 84.7809 75.1869 84.2857 73.6268C83.939 72.5868 83.8028 71.4725 83.8152 70.3705C83.8276 68.4514 84.3847 66.4952 85.5857 64.9846C86.5638 63.7341 87.9629 62.8427 89.4858 62.397C90.1916 62.1741 90.9344 62.0503 91.6897 62.0131ZM38.611 62.7436C39.5024 62.2236 40.5301 61.976 41.5577 61.9884C43.1921 62.0503 44.7645 62.8922 45.7178 64.2294C46.2007 63.5732 46.8693 63.0655 47.5874 62.7065C49.2094 61.9265 51.178 61.8026 52.8495 62.4836C53.6295 62.8055 54.3352 63.3008 54.88 63.9446C55.4372 64.6008 55.8086 65.3932 56.0315 66.2104C56.2667 67.0647 56.3286 67.9562 56.3039 68.8352C56.3039 72.1411 56.3039 75.4592 56.3039 78.7651C55.0781 78.5174 53.84 78.2574 52.6019 78.0222C52.5895 74.8526 52.6019 71.6829 52.5895 68.5133C52.6019 67.7828 52.3419 67.0399 51.8218 66.5323C51.2647 65.9628 50.4475 65.6904 49.6551 65.7028C48.9494 65.6904 48.2313 65.9009 47.6741 66.3466C47.0426 66.8418 46.7084 67.659 46.7084 68.4638C46.7084 71.8934 46.7084 75.3354 46.7084 78.7651C45.4702 78.5174 44.2321 78.2574 42.994 78.0222C42.9816 77.0069 42.994 75.9793 42.9816 74.9516C42.9816 72.822 42.9816 70.6924 42.9816 68.5505C43.0063 67.82 42.7587 67.0647 42.2387 66.5447C41.7806 66.0742 41.1491 65.8018 40.5177 65.7275C39.911 65.6656 39.2919 65.7151 38.7224 65.9504C38.1281 66.198 37.6205 66.6685 37.3481 67.2504C37.1624 67.6466 37.0757 68.08 37.0757 68.5133C37.0757 71.1877 37.0757 73.8621 37.0757 76.5364C37.0881 77.2793 37.0633 78.0222 37.0881 78.7651C35.8499 78.5298 34.6242 78.2574 33.3984 78.0346C33.3737 77.6012 33.4108 77.1555 33.3737 76.7345C33.386 76.2393 33.386 75.744 33.3737 75.2488C33.4108 74.7907 33.3737 74.3202 33.386 73.8621C33.386 72.5496 33.386 71.2372 33.386 69.9248C33.3737 69.1076 33.3984 68.2781 33.3737 67.4609C33.386 67.0028 33.386 66.5323 33.3737 66.0742C33.3984 65.158 33.386 64.2542 33.386 63.3379C33.3984 63.2513 33.3241 63.1151 33.4232 63.0655C34.6489 62.8303 35.8623 62.5951 37.0881 62.3598C37.0757 62.917 37.0881 63.4741 37.0881 64.0313C37.5214 63.5113 38.029 63.0655 38.611 62.7436ZM78.9988 62.236C79.5932 62.1369 80.1998 62.0379 80.7941 61.9388C80.7941 63.2265 80.7941 64.5142 80.7941 65.8018C80.1998 65.9132 79.6055 66.0247 79.0112 66.1237C78.1198 66.2723 77.1912 66.5323 76.5226 67.1761C75.9778 67.6838 75.7178 68.4267 75.6683 69.1572C75.6311 69.6772 75.6559 70.1972 75.6559 70.7296C75.6559 73.4039 75.6559 76.0783 75.6559 78.7527C74.6282 78.5422 73.6006 78.3317 72.5606 78.1336C72.3625 78.0965 72.1767 78.0469 71.9663 78.0222C71.9167 77.7374 71.9539 77.4526 71.9415 77.1679C71.9415 74.3202 71.9415 71.4848 71.9415 68.6371C71.9663 67.7457 72.1148 66.8418 72.4863 66.0123C72.8453 65.1828 73.4768 64.477 74.2197 63.957C75.2102 63.276 76.3616 62.8674 77.5255 62.5579C78.0207 62.4465 78.4912 62.3103 78.9988 62.236ZM63.7698 55.1415C64.3641 55.0672 65.008 55.1291 65.5156 55.4882C66.0975 55.872 66.4194 56.5653 66.4318 57.2463C66.4689 57.4444 66.4194 57.6549 66.4194 57.853C66.3575 58.4721 66.0356 59.0664 65.5032 59.4131C64.946 59.7845 64.2279 59.8464 63.5717 59.7102C63.0269 59.5988 62.5193 59.2521 62.2098 58.7692C61.8507 58.1997 61.7888 57.4816 61.925 56.8254C62.0488 56.2063 62.4698 55.6368 63.0393 55.3644C63.2746 55.2529 63.5222 55.1786 63.7698 55.1415Z" fill="currentColor"/>
</svg>
