<svg width="134" height="60" viewBox="0 0 134 60" fill="none" xmlns="http://www.w3.org/2000/svg">
<path d="M42.5254 24.1839H47.496C50.2493 24.1839 51.6787 25.3128 51.6787 27.4326V27.5382C51.718 28.1594 51.533 28.774 51.1574 29.2703C50.7818 29.7667 50.2405 30.1117 49.632 30.2427C50.3607 30.3069 51.0347 30.6559 51.5076 31.214C51.9805 31.772 52.2142 32.4941 52.1579 33.2235V33.2966C52.1579 35.6113 50.6391 36.8295 47.7234 36.8295H42.5254V24.1839ZM47.033 29.3737C48.4137 29.3737 48.9579 28.8783 48.9579 27.7493V27.6762C48.9579 26.6204 48.3569 26.1412 47.0168 26.1412H45.3193V29.39L47.033 29.3737ZM47.2767 34.8397C48.6899 34.8397 49.3315 34.1981 49.3315 33.0529V32.9798C49.3315 31.8103 48.6899 31.2174 47.1386 31.2174H45.3193V34.8478L47.2767 34.8397Z" fill="currentColor"/>
<path d="M52.9061 34.2547C52.9061 32.0943 54.8798 31.2821 57.7143 31.2821H58.7539V30.9166C58.7539 29.8201 58.4209 29.2191 57.2513 29.2191C57.062 29.1967 56.8701 29.2132 56.6874 29.2676C56.5047 29.3221 56.3351 29.4134 56.189 29.5359C56.043 29.6584 55.9235 29.8095 55.838 29.9799C55.7525 30.1503 55.7028 30.3364 55.6919 30.5267H53.2554C53.4178 28.3339 55.1478 27.3592 57.4138 27.3592C59.6798 27.3592 61.2798 28.277 61.2798 30.7866V36.813H58.7864V35.7003C58.4734 36.1412 58.0516 36.4935 57.5619 36.7227C57.0722 36.9518 56.5315 37.0501 55.9925 37.008C54.3194 37.008 52.9061 36.1958 52.9061 34.2547ZM58.7539 33.5806V32.7684H57.763C56.2767 32.7684 55.4158 33.0932 55.4158 34.076C55.4158 34.7501 55.8219 35.1968 56.7559 35.1968C57.8848 35.2293 58.7539 34.6039 58.7539 33.5806Z" fill="currentColor"/>
<path d="M62.3605 33.9137H64.7483C64.8539 34.7259 65.26 35.2294 66.3727 35.2294C67.3635 35.2294 67.8265 34.8558 67.8265 34.2142C67.8265 33.5726 67.2742 33.3127 65.9503 33.1259C63.5138 32.7523 62.5392 32.0457 62.5392 30.2426C62.5392 28.4396 64.3097 27.3594 66.194 27.3594C68.2488 27.3594 69.7839 28.1066 70.0113 30.2264H67.664C67.526 29.4629 67.0955 29.1137 66.2184 29.1137C65.3412 29.1137 64.9107 29.5036 64.9107 30.064C64.9107 30.6244 65.3493 30.8761 66.6894 31.0711C69.0042 31.4041 70.2793 31.9888 70.2793 33.9706C70.2793 35.9523 68.8336 37.0081 66.3889 37.0081C63.9442 37.0081 62.4498 35.9117 62.3605 33.9137Z" fill="currentColor"/>
<path d="M70.9382 32.3057V32.1676C70.9074 31.5329 71.0088 30.8987 71.2359 30.3052C71.4631 29.7117 71.811 29.1719 72.2577 28.7198C72.7043 28.2678 73.24 27.9135 73.8308 27.6794C74.4215 27.4452 75.0545 27.3363 75.6895 27.3595C78.0773 27.3595 80.1971 28.7565 80.1971 32.0621V32.7687H73.5616C73.6266 34.3037 74.4631 35.2052 75.852 35.2052C77.0377 35.2052 77.6225 34.6935 77.785 33.9138H80.2215C79.921 35.9118 78.3291 37.0245 75.8032 37.0245C72.9687 37.0083 70.9382 35.2621 70.9382 32.3057ZM77.7037 31.193C77.6225 29.7961 76.9078 29.1626 75.6895 29.1626C75.1411 29.16 74.6129 29.3701 74.2161 29.7487C73.8193 30.1273 73.5847 30.645 73.5616 31.193H77.7037Z" fill="currentColor"/>
<path d="M80.8717 32.3055V32.1675C80.8407 31.5313 80.9425 30.8957 81.1706 30.3011C81.3987 29.7064 81.7481 29.1657 82.1965 28.7135C82.645 28.2612 83.1827 27.9073 83.7754 27.6741C84.3681 27.441 85.0028 27.3338 85.6392 27.3594C87.7834 27.3594 89.757 28.2934 89.9925 30.9492H87.5559C87.5397 30.7212 87.4779 30.4989 87.3741 30.2953C87.2702 30.0917 87.1265 29.9111 86.9515 29.7641C86.7765 29.6171 86.5738 29.5068 86.3553 29.4397C86.1368 29.3726 85.9071 29.3501 85.6798 29.3736C84.3559 29.3736 83.4707 30.3644 83.4707 32.135V32.2731C83.4707 34.133 84.2828 35.0832 85.7366 35.0832C85.984 35.0974 86.2317 35.0623 86.4654 34.9799C86.699 34.8974 86.9139 34.7694 87.0976 34.6031C87.2813 34.4368 87.43 34.2356 87.5352 34.0113C87.6404 33.787 87.6999 33.544 87.7103 33.2964H90.025C89.8869 35.4893 88.295 37.0081 85.6067 37.0081C82.9184 37.0081 80.8717 35.3269 80.8717 32.3055Z" fill="currentColor"/>
<path d="M90.6156 34.2547C90.6156 32.0943 92.5893 31.2821 95.4157 31.2821H96.4634V30.9166C96.4634 29.8201 96.1223 29.2191 94.9608 29.2191C94.7703 29.1943 94.5766 29.209 94.392 29.2623C94.2074 29.3157 94.0358 29.4066 93.8879 29.5293C93.74 29.6521 93.619 29.804 93.5325 29.9756C93.446 30.1472 93.3959 30.3349 93.3852 30.5267H90.9486C91.1111 28.3339 92.841 27.3592 95.0989 27.3592C97.3568 27.3592 98.973 28.277 98.973 30.7866V36.813H96.4796V35.7003C96.1667 36.1412 95.7448 36.4935 95.2551 36.7227C94.7655 36.9518 94.2247 37.0501 93.6857 37.008C92.0613 37.008 90.6156 36.1958 90.6156 34.2547ZM96.4634 33.5806V32.7684H95.4888C94.0025 32.7684 93.1334 33.0932 93.1334 34.076C93.1334 34.7501 93.5476 35.1968 94.4817 35.1968C95.6268 35.2293 96.4959 34.6039 96.4959 33.5806H96.4634Z" fill="currentColor"/>
<path d="M100.777 27.5381H103.336V28.9513C103.615 28.4492 104.025 28.0326 104.523 27.7464C105.021 27.4602 105.588 27.3152 106.162 27.3269C106.71 27.2831 107.258 27.4175 107.723 27.7102C108.189 28.003 108.547 28.4383 108.745 28.9513C109.086 28.4418 109.55 28.0261 110.093 27.7423C110.637 27.4585 111.243 27.3157 111.856 27.3269C113.569 27.3269 114.893 28.4071 114.893 30.8599V36.7807H112.351V31.1767C112.351 29.9909 111.823 29.4629 110.897 29.4629C110.651 29.4522 110.405 29.4948 110.177 29.5877C109.949 29.6806 109.743 29.8217 109.574 30.0014C109.405 30.181 109.277 30.395 109.199 30.6286C109.12 30.8623 109.093 31.1102 109.119 31.3553V36.8132H106.568V31.1767C106.568 29.9909 106.024 29.4629 105.123 29.4629C104.876 29.451 104.629 29.4927 104.4 29.5851C104.17 29.6774 103.964 29.8184 103.794 29.9981C103.624 30.1779 103.495 30.3923 103.416 30.6266C103.337 30.8608 103.31 31.1095 103.336 31.3553V36.8132H100.777V27.5381Z" fill="currentColor"/>
<path d="M116.647 27.5381H119.213V28.9919C119.519 28.4834 119.952 28.0628 120.468 27.771C120.985 27.4792 121.568 27.3262 122.162 27.3269C124.428 27.3269 126.223 29.0081 126.223 32.0619V32.2081C126.223 35.2619 124.493 36.9756 122.162 36.9756C121.569 37 120.981 36.8614 120.461 36.5751C119.941 36.2887 119.51 35.8655 119.213 35.3513V39.9645H116.647V27.5381ZM123.591 32.0863C123.591 30.2102 122.673 29.2924 121.382 29.2924C120.091 29.2924 119.124 30.2264 119.124 32.0863V32.2244C119.124 34.0761 120.009 34.9777 121.406 34.9777C122.803 34.9777 123.591 34.0355 123.591 32.2569V32.0863Z" fill="currentColor"/>
<path fill-rule="evenodd" clip-rule="evenodd" d="M23.538 19.7695C16.3311 19.7695 12.5727 25.8739 10.4683 31.8403C10.2139 32.5615 9.42301 32.94 8.70177 32.6856C7.98053 32.4312 7.60206 31.6403 7.85645 30.9191C9.99168 24.8652 14.3551 17 23.538 17C28.338 17 31.7736 20.1754 33.9956 23.9904C36.2234 27.8153 37.4112 32.5514 37.6789 36.3754C37.6981 36.6502 37.6349 36.9246 37.4974 37.1633C36.2106 39.3971 34.0698 40.8528 31.6295 41.7443C29.1953 42.6337 26.3755 42.997 23.5491 42.998C21.1478 43.0354 18.7666 42.5548 16.5677 41.5889C14.3653 40.6215 12.3978 39.1899 10.7995 37.3921C10.4595 37.0097 10.3582 36.4709 10.5359 35.991L11.8345 36.4721C10.5359 35.991 10.5359 35.991 10.5359 35.991L10.539 35.9829L10.5457 35.9648C10.5515 35.9495 10.5597 35.9278 10.5702 35.9002C10.5914 35.8448 10.622 35.7655 10.6615 35.6655C10.7404 35.4658 10.855 35.183 10.9998 34.8445C11.2882 34.1707 11.7025 33.2625 12.2001 32.3455C12.6913 31.4407 13.2952 30.4679 13.9743 29.7014C14.5934 29.0027 15.5558 28.1515 16.7875 28.1432L16.7969 28.1431C17.6673 28.1431 18.3823 28.5416 18.8969 28.9247C19.4157 29.3109 19.8868 29.8017 20.2643 30.2012C20.3076 30.247 20.3497 30.2916 20.3907 30.3351C20.7423 30.7079 21.0112 30.993 21.2666 31.2064C21.2953 31.2304 21.3217 31.2516 21.3458 31.2702C21.4288 31.1854 21.528 31.0741 21.6421 30.9326C22.0479 30.4294 22.5038 29.7207 22.945 28.9619C23.3803 28.2131 23.7766 27.4588 24.0654 26.8882C24.2094 26.6039 24.3255 26.3675 24.4053 26.203C24.4451 26.1208 24.4758 26.0567 24.4963 26.0137L24.5191 25.9655L24.5257 25.9516C24.8504 25.2592 25.675 24.9607 26.3674 25.2852C27.0599 25.6098 27.3581 26.4343 27.0335 27.1268L25.8899 26.5908C27.0335 27.1268 27.0335 27.1268 27.0335 27.1268L27.0305 27.1332L27.0233 27.1485L26.9967 27.2046C26.9737 27.253 26.9402 27.3229 26.8973 27.4112C26.8117 27.5879 26.6884 27.8387 26.5363 28.1392C26.2331 28.7382 25.8105 29.5433 25.3393 30.3539C24.8738 31.1545 24.3353 32.0051 23.7977 32.6715C23.5312 33.0019 23.229 33.3324 22.9022 33.5924C22.6134 33.8221 22.1039 34.1614 21.4507 34.1614C20.5871 34.1614 19.9066 33.6792 19.4907 33.3316C19.0987 33.0041 18.7071 32.5877 18.3782 32.238C18.3348 32.1919 18.2924 32.1469 18.2514 32.1034C17.8614 31.6907 17.5426 31.3693 17.2431 31.1463C16.9806 30.9509 16.8466 30.9188 16.8081 30.9136C16.8071 30.9141 16.8053 30.9147 16.8029 30.9155C16.7606 30.9305 16.5062 31.0201 16.0472 31.5382C15.5712 32.0753 15.0843 32.8375 14.6343 33.6666C14.1908 34.4837 13.8137 35.3085 13.546 35.9341C13.5115 36.0148 13.4789 36.0918 13.4484 36.1649C14.6671 37.3793 16.1019 38.3593 17.6816 39.0532C19.519 39.8604 21.5089 40.2613 23.5155 40.2286C23.523 40.2285 23.5305 40.2284 23.538 40.2284C26.1577 40.2284 28.6373 39.889 30.6791 39.143C32.5575 38.4567 33.9904 37.4564 34.8811 36.1285C34.5793 32.7254 33.4953 28.6341 31.6024 25.3843C29.6213 21.9829 26.9331 19.7695 23.538 19.7695ZM21.1181 31.467C21.1181 31.467 21.1242 31.4624 21.1358 31.4565C21.1238 31.4646 21.1181 31.467 21.1181 31.467Z" fill="currentColor"/>
</svg>
