<svg width="134" height="135" viewBox="0 0 134 135" fill="none" xmlns="http://www.w3.org/2000/svg">
<path d="M8.58324 66.4278C8.53733 66.3677 8.47671 66.3205 8.40722 66.2907C8.33774 66.2609 8.26174 66.2495 8.18658 66.2577C8.11142 66.2659 8.03964 66.2933 7.97817 66.3373C7.9167 66.3813 7.86763 66.4404 7.8357 66.509L4.04779 74.0824C4.01328 74.1514 3.99699 74.2281 4.00046 74.3052C4.00393 74.3823 4.02704 74.4572 4.06761 74.5229C4.10818 74.5885 4.16485 74.6427 4.23225 74.6803C4.29965 74.7179 4.37553 74.7376 4.4527 74.7376H9.72716C9.81164 74.7396 9.89487 74.717 9.96675 74.6725C10.0386 74.6281 10.0961 74.5638 10.1321 74.4873C11.2698 72.1363 10.5803 68.5615 8.58324 66.4278Z" fill="currentColor"/>
<path d="M11.3613 59.5393C10.4175 60.9916 9.86742 62.6643 9.76518 64.3933C9.66293 66.1223 10.012 67.8482 10.7781 69.4016L13.321 74.4873C13.3586 74.5625 13.4163 74.6258 13.4879 74.67C13.5594 74.7142 13.6418 74.7376 13.7259 74.7376H18.9994C19.0766 74.7376 19.1524 74.7179 19.2198 74.6803C19.2872 74.6427 19.3439 74.5885 19.3845 74.5229C19.425 74.4573 19.4482 74.3823 19.4516 74.3052C19.4551 74.2282 19.4388 74.1515 19.4043 74.0824C19.4043 74.0824 12.3096 59.8914 12.1313 59.5365C12.0961 59.4643 12.0412 59.4034 11.9729 59.3609C11.9047 59.3185 11.8258 59.2961 11.7454 59.2964C11.665 59.2967 11.5863 59.3196 11.5184 59.3626C11.4505 59.4056 11.396 59.4668 11.3613 59.5393Z" fill="currentColor"/>
<path d="M73.2172 65.6118C73.2172 67.4871 74.0872 68.9761 77.4901 69.6334C79.5203 70.0596 79.9456 70.3873 79.9456 71.0641C79.9456 71.7214 79.5194 72.1469 78.0894 72.1469C76.3611 72.1158 74.6674 71.6575 73.1592 70.8128V73.8674C74.184 74.3701 75.5373 74.9308 78.0508 74.9308C81.6083 74.9308 83.0198 73.3443 83.0198 70.9866L73.2172 65.6118ZM83.0198 70.9866C83.0198 68.7632 81.8404 67.719 78.5149 67.0039C76.6781 66.5978 76.2335 66.1919 76.2335 65.6118C76.2335 64.8777 76.8908 64.5678 78.1088 64.5678C79.5783 64.5678 81.0284 65.0125 82.4011 65.6312V62.7116C81.0849 62.1125 79.6513 61.8153 78.2054 61.8416C74.9186 61.8416 73.2172 63.2723 73.2172 65.6118" fill="currentColor"/>
<path d="M118.921 62.0349V74.7377H121.628V65.0511L122.769 67.6224L126.597 74.7377H130V62.0349H127.293V70.2328L126.268 67.8545L123.194 62.0349H118.921Z" fill="currentColor"/>
<path d="M101.706 62.0349H98.7475V74.7377H101.706V62.0349Z" fill="currentColor"/>
<path d="M95.3342 70.9865C95.3342 68.7631 94.1548 67.7188 90.8293 67.0037C88.9925 66.5977 88.5479 66.1918 88.5479 65.6117C88.5479 64.8776 89.2052 64.5677 90.4232 64.5677C91.8927 64.5677 93.3428 65.0123 94.7155 65.6311V62.7115C93.3993 62.1124 91.9657 61.8152 90.5198 61.8415C87.233 61.8415 85.5317 63.2722 85.5317 65.6117C85.5317 67.487 86.4016 68.976 89.8045 69.6333C91.8347 70.0595 92.26 70.3872 92.26 71.064C92.26 71.7213 91.8338 72.1468 90.4038 72.1468C88.6755 72.1157 86.9818 71.6574 85.4736 70.8127V73.8673C86.4985 74.37 87.8517 74.9307 90.3652 74.9307C93.9227 74.9307 95.3342 73.3442 95.3342 70.9865Z" fill="currentColor"/>
<path d="M50.2364 62.0349V74.7377H56.3167L57.274 71.9921H53.2138V62.0349H50.2364Z" fill="currentColor"/>
<path d="M38.2243 62.0349V64.7802H41.5112V74.7377H44.4886V64.7802H48.0075V62.0349H38.2243Z" fill="currentColor"/>
<path d="M33.9068 62.0349H30.0047L25.5751 74.7377H28.9579L29.5858 72.5983C31.1324 73.0524 32.7769 73.0524 34.3235 72.5983L34.9515 74.7377H38.3349L33.9068 62.0349ZM31.9556 70.3076C31.4046 70.3076 30.8564 70.2287 30.3277 70.0734L31.9556 64.53L33.5835 70.0753C33.0547 70.23 32.5066 70.3082 31.9556 70.3076Z" fill="currentColor"/>
<path d="M66.7994 62.0349H62.8976L58.468 74.7377H61.8514L62.4794 72.5983C64.026 73.0524 65.6705 73.0524 67.2171 72.5983L67.8451 74.7377H71.2285L66.7994 62.0349ZM64.8485 70.3076C64.2974 70.3076 63.7493 70.2287 63.2206 70.0734L64.8485 64.53L66.4764 70.0753C65.9476 70.23 65.3994 70.3082 64.8485 70.3076Z" fill="currentColor"/>
<path d="M112.365 62.0349H108.464L104.034 74.7377H107.417L108.045 72.5983C109.592 73.0524 111.237 73.0524 112.783 72.5983L113.411 74.7377H116.795L112.365 62.0349ZM110.413 70.3076C109.862 70.3076 109.314 70.2287 108.785 70.0734L110.413 64.53L112.041 70.0753C111.512 70.23 110.964 70.3082 110.413 70.3076Z" fill="currentColor"/>
</svg>
