<svg width="134" height="60" viewBox="0 0 134 60" fill="none" xmlns="http://www.w3.org/2000/svg">
<path fill-rule="evenodd" clip-rule="evenodd" d="M18.4023 23.4786L28.955 18L39.6211 23.4786L28.955 28.971L18.4023 23.4786ZM81.753 26.139V26.0066C81.753 24.2038 82.8136 23.6257 84.5998 23.7537V20.4573C80.3206 20.1965 78.2925 22.3403 78.2925 26.0066V26.139H76.3574V29.4358H78.2925V39.4151H81.753V29.4358H85.7348V39.4151H89.1953V29.4358H92.042V26.139H89.1953V26.0066C89.1953 24.2038 90.2373 23.6257 92.042 23.7537V20.4573C87.7629 20.1965 85.7348 22.3403 85.7348 26.0066V26.139H81.753ZM57.5652 29.7489C58.6627 28.8761 59.3324 27.6287 59.3324 26.0256C59.3324 22.9185 56.8021 20.7941 53.6205 20.7941H46.2337V39.3771H54.2157C57.4718 39.3771 60.0766 37.1811 60.0766 33.9986C60.0396 32.0777 59.0721 30.6069 57.5652 29.7489ZM53.639 24.2375C54.8299 24.2375 55.6486 25.1145 55.6486 26.2865C55.6486 27.4623 54.7925 28.335 53.639 28.335H49.9366V24.2375H53.639ZM54.1972 35.9717H49.9366V31.5934H54.1972C55.4626 31.5934 56.3742 32.523 56.3742 33.7704C56.3742 35.0373 55.4626 35.9717 54.1972 35.9717ZM70.8683 26.12V33.2871C70.8683 35.597 69.6034 36.5835 67.9101 36.5835C66.3469 36.5835 65.2493 35.6539 65.2493 33.8463V26.12H61.7884V34.2737C61.7884 37.8119 64.0029 39.7708 66.8681 39.7708C68.6728 39.7708 70.0682 39.0973 70.8498 37.9068V39.3961H74.3103V26.12H70.8683ZM106.387 34.1641H96.2661C96.7684 35.9147 98.2193 36.6594 100.024 36.6594C101.382 36.6594 102.462 36.0992 103.039 35.3361L105.829 36.9203C104.583 38.7269 102.573 39.7708 99.987 39.7708C95.4845 39.7708 92.6377 36.7163 92.6377 32.7512C92.6377 28.7813 95.503 25.7263 99.7266 25.7263C103.69 25.7263 106.518 28.8382 106.518 32.7512C106.518 33.2682 106.462 33.7187 106.387 34.1641ZM99.7266 28.8382C97.8664 28.8382 96.6005 29.8247 96.2097 31.5175H103.057C102.629 29.6018 101.178 28.8382 99.7266 28.8382ZM111.523 28.4109V26.12H108.062V39.3961H111.523V33.0452C111.523 30.2511 113.793 29.4548 115.598 29.6772V25.8596C113.905 25.8596 112.212 26.6043 111.523 28.4109ZM28.955 38.3669L21.7556 34.4539L18.4023 36.2705L28.955 42L39.6211 36.2705L36.2298 34.4539L28.955 38.3669ZM21.7556 28.2833L28.955 31.8306L36.2298 28.2833L39.6211 29.9386L28.955 35.1416L18.4023 29.9386L21.7556 28.2833Z" fill="currentColor"/>
</svg>
