<svg width="134" height="60" viewBox="0 0 134 60" fill="none" xmlns="http://www.w3.org/2000/svg">
<path d="M11 20.1991C11 18.9846 11.9846 18 13.1991 18H21.8009C23.0154 18 24 18.9846 24 20.1991V21.9005C24 22.5077 23.5077 23 22.9005 23H12.0995C11.4923 23 11 22.5077 11 21.9005V20.1991Z" fill="currentColor"/>
<path d="M11 27.0995C11 26.4923 11.4923 26 12.0995 26H32.8009C34.0154 26 35 26.9846 35 28.1991V33.9005C35 34.5077 34.5077 35 33.9005 35H13.1991C11.9846 35 11 34.0154 11 32.8009V27.0995Z" fill="currentColor"/>
<path d="M22 39.0995C22 38.4923 22.4923 38 23.0995 38H33.9005C34.5077 38 35 38.4923 35 39.0995V39.8009C35 41.0154 34.0154 42 32.8009 42H24.1991C22.9846 42 22 41.0154 22 39.8009V39.0995Z" fill="currentColor"/>
<path d="M48.5956 32.741H50.9071L55.1999 39.7581H60.4559L55.6953 32.2456C58.337 31.3375 59.878 29.3012 59.878 26.3567C59.878 22.229 56.9886 20 52.338 20H44V39.7581H48.5956V32.741ZM48.5956 28.9985V23.8801H52.0904C54.2643 23.8801 55.365 24.8157 55.365 26.4393C55.365 28.0353 54.2643 28.9985 52.0904 28.9985H48.5956Z" fill="currentColor"/>
<path d="M68.3631 40.0608C71.2525 40.0608 73.8943 38.6024 74.9675 35.823L71.2801 34.6397C70.8673 35.9056 69.7941 36.566 68.4182 36.566C66.7395 36.566 65.5563 35.4378 65.2536 33.4564H75.0776V32.3007C75.0776 28.2004 72.6835 24.9533 68.2806 24.9533C64.0978 24.9533 61.0157 28.2004 61.0157 32.4933C61.0157 37.0063 63.9877 40.0608 68.3631 40.0608ZM68.2255 28.3656C69.8491 28.3656 70.7022 29.4663 70.7297 30.7596H65.3912C65.8314 29.1636 66.8771 28.3656 68.2255 28.3656Z" fill="currentColor"/>
<path d="M77.5732 35.878C77.5732 38.85 79.1417 39.8957 82.2788 39.8957C83.3245 39.8957 84.15 39.8132 84.9205 39.7031V36.0982C84.4252 36.1532 84.1775 36.1807 83.6547 36.1807C82.554 36.1807 81.921 35.9606 81.921 34.7498V28.8884H84.7554V25.256H81.921V21.2383H77.5732V25.256H75.7294V28.8884H77.5732V35.878Z" fill="currentColor"/>
<path d="M100.672 32.5208C100.672 28.0078 97.6725 24.9533 93.4071 24.9533C89.1143 24.9533 86.1423 28.0078 86.1423 32.5208C86.1423 37.0338 89.1143 40.0608 93.4071 40.0608C97.6725 40.0608 100.672 37.0338 100.672 32.5208ZM90.5177 32.5208C90.5177 29.9891 91.646 28.5582 93.4071 28.5582C95.1683 28.5582 96.2965 29.9891 96.2965 32.5208C96.2965 35.0525 95.1683 36.4834 93.4071 36.4834C91.646 36.4834 90.5177 35.0525 90.5177 32.5208Z" fill="currentColor"/>
<path d="M116.527 32.5208C116.527 28.0078 113.528 24.9533 109.262 24.9533C104.969 24.9533 101.997 28.0078 101.997 32.5208C101.997 37.0338 104.969 40.0608 109.262 40.0608C113.528 40.0608 116.527 37.0338 116.527 32.5208ZM106.373 32.5208C106.373 29.9891 107.501 28.5582 109.262 28.5582C111.024 28.5582 112.152 29.9891 112.152 32.5208C112.152 35.0525 111.024 36.4834 109.262 36.4834C107.501 36.4834 106.373 35.0525 106.373 32.5208Z" fill="currentColor"/>
<path d="M123 20H118.597V39.7581H123V20Z" fill="currentColor"/>
</svg>
