<svg width="134" height="134" viewBox="0 0 134 134" fill="none" xmlns="http://www.w3.org/2000/svg">
<path fill-rule="evenodd" clip-rule="evenodd" d="M18.4023 60.4786L28.955 55L39.6211 60.4786L28.955 65.971L18.4023 60.4786ZM81.753 63.139V63.0066C81.753 61.2038 82.8136 60.6257 84.5998 60.7537V57.4573C80.3206 57.1965 78.2925 59.3403 78.2925 63.0066V63.139H76.3574V66.4358H78.2925V76.4151H81.753V66.4358H85.7348V76.4151H89.1953V66.4358H92.042V63.139H89.1953V63.0066C89.1953 61.2038 90.2373 60.6257 92.042 60.7537V57.4573C87.7629 57.1965 85.7348 59.3403 85.7348 63.0066V63.139H81.753ZM57.5652 66.7489C58.6627 65.8761 59.3324 64.6287 59.3324 63.0256C59.3324 59.9185 56.8021 57.7941 53.6205 57.7941H46.2337V76.3771H54.2157C57.4718 76.3771 60.0766 74.1811 60.0766 70.9986C60.0396 69.0777 59.0721 67.6069 57.5652 66.7489ZM53.639 61.2375C54.8299 61.2375 55.6486 62.1145 55.6486 63.2865C55.6486 64.4623 54.7925 65.335 53.639 65.335H49.9366V61.2375H53.639ZM54.1972 72.9717H49.9366V68.5934H54.1972C55.4626 68.5934 56.3742 69.523 56.3742 70.7704C56.3742 72.0373 55.4626 72.9717 54.1972 72.9717ZM70.8683 63.12V70.2871C70.8683 72.597 69.6034 73.5835 67.9101 73.5835C66.3469 73.5835 65.2493 72.6539 65.2493 70.8463V63.12H61.7884V71.2737C61.7884 74.8119 64.0029 76.7708 66.8681 76.7708C68.6728 76.7708 70.0682 76.0973 70.8498 74.9068V76.3961H74.3103V63.12H70.8683ZM106.387 71.1641H96.2661C96.7684 72.9147 98.2193 73.6594 100.024 73.6594C101.382 73.6594 102.462 73.0992 103.039 72.3361L105.829 73.9203C104.583 75.7269 102.573 76.7708 99.987 76.7708C95.4845 76.7708 92.6377 73.7163 92.6377 69.7512C92.6377 65.7813 95.503 62.7263 99.7266 62.7263C103.69 62.7263 106.518 65.8382 106.518 69.7512C106.518 70.2682 106.462 70.7187 106.387 71.1641ZM99.7266 65.8382C97.8664 65.8382 96.6005 66.8247 96.2097 68.5175H103.057C102.629 66.6018 101.178 65.8382 99.7266 65.8382ZM111.523 65.4109V63.12H108.062V76.3961H111.523V70.0452C111.523 67.2511 113.793 66.4548 115.598 66.6772V62.8596C113.905 62.8596 112.212 63.6043 111.523 65.4109ZM28.955 75.3669L21.7556 71.4539L18.4023 73.2705L28.955 79L39.6211 73.2705L36.2298 71.4539L28.955 75.3669ZM21.7556 65.2833L28.955 68.8306L36.2298 65.2833L39.6211 66.9386L28.955 72.1416L18.4023 66.9386L21.7556 65.2833Z" fill="currentColor"/>
</svg>
