<svg width="134" height="134" viewBox="0 0 134 134" fill="none" xmlns="http://www.w3.org/2000/svg">
<path d="M11 57.1991C11 55.9846 11.9846 55 13.1991 55H21.8009C23.0154 55 24 55.9846 24 57.1991V58.9005C24 59.5077 23.5077 60 22.9005 60H12.0995C11.4923 60 11 59.5077 11 58.9005V57.1991Z" fill="currentColor"/>
<path d="M11 64.0995C11 63.4923 11.4923 63 12.0995 63H32.8009C34.0154 63 35 63.9846 35 65.1991V70.9005C35 71.5077 34.5077 72 33.9005 72H13.1991C11.9846 72 11 71.0154 11 69.8009V64.0995Z" fill="currentColor"/>
<path d="M22 76.0995C22 75.4923 22.4923 75 23.0995 75H33.9005C34.5077 75 35 75.4923 35 76.0995V76.8009C35 78.0154 34.0154 79 32.8009 79H24.1991C22.9846 79 22 78.0154 22 76.8009V76.0995Z" fill="currentColor"/>
<path d="M48.5956 69.741H50.9071L55.1999 76.7581H60.4559L55.6953 69.2456C58.337 68.3375 59.878 66.3012 59.878 63.3567C59.878 59.229 56.9886 57 52.338 57H44V76.7581H48.5956V69.741ZM48.5956 65.9985V60.8801H52.0904C54.2643 60.8801 55.365 61.8157 55.365 63.4393C55.365 65.0353 54.2643 65.9985 52.0904 65.9985H48.5956Z" fill="currentColor"/>
<path d="M68.3631 77.0608C71.2525 77.0608 73.8943 75.6024 74.9675 72.823L71.2801 71.6397C70.8673 72.9056 69.7941 73.566 68.4182 73.566C66.7395 73.566 65.5563 72.4378 65.2536 70.4564H75.0776V69.3007C75.0776 65.2004 72.6835 61.9533 68.2806 61.9533C64.0978 61.9533 61.0157 65.2004 61.0157 69.4933C61.0157 74.0063 63.9877 77.0608 68.3631 77.0608ZM68.2255 65.3656C69.8491 65.3656 70.7022 66.4663 70.7297 67.7596H65.3912C65.8314 66.1636 66.8771 65.3656 68.2255 65.3656Z" fill="currentColor"/>
<path d="M77.5732 72.878C77.5732 75.85 79.1417 76.8957 82.2788 76.8957C83.3245 76.8957 84.15 76.8132 84.9205 76.7031V73.0982C84.4252 73.1532 84.1775 73.1807 83.6547 73.1807C82.554 73.1807 81.921 72.9606 81.921 71.7498V65.8884H84.7554V62.256H81.921V58.2383H77.5732V62.256H75.7294V65.8884H77.5732V72.878Z" fill="currentColor"/>
<path d="M100.672 69.5208C100.672 65.0078 97.6725 61.9533 93.4071 61.9533C89.1143 61.9533 86.1423 65.0078 86.1423 69.5208C86.1423 74.0338 89.1143 77.0608 93.4071 77.0608C97.6725 77.0608 100.672 74.0338 100.672 69.5208ZM90.5177 69.5208C90.5177 66.9891 91.646 65.5582 93.4071 65.5582C95.1683 65.5582 96.2965 66.9891 96.2965 69.5208C96.2965 72.0525 95.1683 73.4834 93.4071 73.4834C91.646 73.4834 90.5177 72.0525 90.5177 69.5208Z" fill="currentColor"/>
<path d="M116.527 69.5208C116.527 65.0078 113.528 61.9533 109.262 61.9533C104.969 61.9533 101.997 65.0078 101.997 69.5208C101.997 74.0338 104.969 77.0608 109.262 77.0608C113.528 77.0608 116.527 74.0338 116.527 69.5208ZM106.373 69.5208C106.373 66.9891 107.501 65.5582 109.262 65.5582C111.024 65.5582 112.152 66.9891 112.152 69.5208C112.152 72.0525 111.024 73.4834 109.262 73.4834C107.501 73.4834 106.373 72.0525 106.373 69.5208Z" fill="currentColor"/>
<path d="M123 57H118.597V76.7581H123V57Z" fill="currentColor"/>
</svg>
